<?xml version="1.0" encoding="utf-8"?>
<!-- Generator: Adobe Illustrator 27.5.0, SVG Export Plug-In . SVG Version: 6.00 Build 0)  -->
<svg version="1.1" xmlns="http://www.w3.org/2000/svg" xmlns:xlink="http://www.w3.org/1999/xlink" x="0px" y="0px"
	 viewBox="0 0 500 500" style="enable-background:new 0 0 500 500;" xml:space="preserve">
<g id="Background_Complete">
	<g>
		<rect x="416.779" y="398.494" style="fill:#EBEBEB;" width="33.122" height="0.25"/>
		<rect x="322.527" y="401.208" style="fill:#EBEBEB;" width="8.693" height="0.25"/>
		<rect x="396.586" y="389.208" style="fill:#EBEBEB;" width="19.192" height="0.25"/>
		<rect x="52.459" y="390.888" style="fill:#EBEBEB;" width="43.193" height="0.25"/>
		<rect x="104.556" y="390.888" style="fill:#EBEBEB;" width="6.333" height="0.25"/>
		<rect x="131.471" y="395.111" style="fill:#EBEBEB;" width="93.676" height="0.25"/>
		<g>
			<path style="fill:#EBEBEB;" d="M238.401,337.8H45.302c-3.147,0-5.708-2.561-5.708-5.708V60.66c0-3.147,2.561-5.708,5.708-5.708
				h193.099c3.146,0,5.707,2.561,5.707,5.708v271.432C244.108,335.239,241.547,337.8,238.401,337.8z M45.302,55.203
				c-3.01,0-5.458,2.448-5.458,5.458v271.432c0,3.01,2.448,5.458,5.458,5.458h193.099c3.009,0,5.457-2.448,5.457-5.458V60.66
				c0-3.009-2.448-5.458-5.457-5.458H45.302z"/>
			<path style="fill:#EBEBEB;" d="M454.698,337.8H261.599c-3.146,0-5.707-2.561-5.707-5.708V60.66c0-3.147,2.561-5.708,5.707-5.708
				h193.099c3.148,0,5.708,2.561,5.708,5.708v271.432C460.406,335.239,457.845,337.8,454.698,337.8z M261.599,55.203
				c-3.009,0-5.457,2.448-5.457,5.458v271.432c0,3.01,2.448,5.458,5.457,5.458h193.099c3.01,0,5.458-2.448,5.458-5.458V60.66
				c0-3.009-2.448-5.458-5.458-5.458H261.599z"/>
		</g>
		<rect y="382.398" style="fill:#EBEBEB;" width="500" height="0.25"/>
	</g>
	<g>
		<g>
			<g>
				<path style="fill:#EBEBEB;" d="M400,257.132c-6.263-1.936-10.387-3.21-15.284-4.724c-1.117-0.345-0.82-2.002,0.348-1.94
					c5.711,0.301,10.387,0.549,17.613,0.933c-4.16-7.235-6.616-11.75-9.418-17.414c-0.514-1.038,0.862-1.967,1.632-1.101
					c3.76,4.229,6.906,7.666,11.948,13.076c1.204-7.003,2.597-13.448,4.342-19.928c0.314-1.167,2.055-0.864,1.949,0.34
					c-0.466,5.257-0.636,10.56-0.509,15.684c0.235,0.083,0.245,0.087,0.48,0.17c4.233-4.824,8.676-9.462,13.305-13.907
					c0.891-0.856,2.223,0.372,1.458,1.342c-4.493,5.697-8.652,11.656-12.436,17.85c6.045-2.28,12.125-4.492,18.226-6.634
					c1.139-0.4,1.87,1.207,0.819,1.802c-6.33,3.587-12.589,7.258-18.84,11.059c6.594,2.1,10.895,3.47,16.106,5.129
					c1.114,0.355,0.807,2.008-0.36,1.937c-5.34-0.323-9.775-0.59-16.551-0.998c3.271,3.831,5.545,6.458,8.19,9.431
					c0.773,0.869-0.322,2.13-1.291,1.487c-3.327-2.208-6.254-4.167-10.514-7.027c0.432,3.404,0.808,6.037,1.258,8.621
					c0.206,1.182-1.466,1.648-1.903,0.53c-1.106-2.83-2.118-5.647-3.403-9.381c-4.81,23.016-3.563,45.326,1.088,68.205
					c-2.306-0.417-3.458-0.625-5.764-1.041c-3.369-23.457-2.497-44.461,2.703-67.52c-2.889,2.98-5.012,5.231-7.037,7.496
					c-0.801,0.896-2.211-0.144-1.59-1.174c1.359-2.254,2.837-4.549,4.81-7.513c-5.146,1.128-8.671,1.908-12.556,2.783
					c-1.145,0.258-1.711-1.335-0.661-1.857C391.781,261.047,395.105,259.447,400,257.132z"/>
			</g>
			<g>
				<path style="fill:#F0F0F0;" d="M391.87,265.083c4.747-2.516,8.164-4.329,11.736-6.223c1.384-0.734,0.58-2.839-0.942-2.466
					c-4.458,1.093-8.605,2.112-14.494,3.558c2.362-6.805,3.855-11.382,5.31-16.421c0.431-1.493-1.615-2.385-2.418-1.055
					c-2.383,3.949-4.652,7.605-7.996,12.909c-2.027-5.417-4.108-10.448-6.388-15.389c-0.677-1.466-2.885-0.67-2.486,0.895
					c1,3.917,1.828,7.863,2.465,11.739c-0.215,0.125-0.224,0.131-0.439,0.256c-3.794-2.962-7.685-5.799-11.662-8.51
					c-1.368-0.933-2.874,0.956-1.652,2.073c4.189,3.831,8.2,7.856,12.013,12.063c-5.136-0.897-10.286-1.747-15.443-2.548
					c-1.6-0.249-2.16,2.041-0.63,2.57c5.693,1.969,11.357,4.008,17.032,6.135c-5.058,2.738-8.654,4.684-12.486,6.758
					c-1.377,0.745-0.559,2.844,0.959,2.459c4.118-1.043,8.005-2.027,13.451-3.405c-1.949,3.412-3.439,5.992-4.97,8.582
					c-0.791,1.338,0.966,2.713,2.076,1.625c2.166-2.123,4.321-4.246,7.171-7.06c0.125,2.025,0.218,3.782,0.283,5.422
					c0.062,1.598,2.376,1.741,2.64,0.164c0.33-1.972,0.651-4.076,1.011-6.566c9.021,21.714,11.96,43.865,11.661,67.209
					c2.188-0.839,3.281-1.259,5.468-2.098c-1.068-23.674-5.845-44.145-15.257-65.829c2.073,1.458,3.814,2.703,5.405,3.872
					c1.304,0.958,2.869-0.801,1.759-1.979c-1.081-1.148-2.267-2.376-3.637-3.775c4.011,0.113,7.06,0.202,10.044,0.298
					c1.574,0.051,1.914-2.194,0.395-2.611C398.906,266.926,395.878,266.124,391.87,265.083z"/>
			</g>
			<g>
				<path style="fill:#F5F5F5;" d="M412.599,277.696c-3.548-1.881-6.078-3.222-8.754-4.642c-0.98-0.519-0.412-2.01,0.665-1.746
					c3.334,0.818,6.397,1.569,10.786,2.648c-1.754-5.052-2.85-8.419-3.929-12.173c-0.304-1.058,1.143-1.69,1.711-0.747
					c1.778,2.949,3.45,5.645,5.938,9.592c1.514-4.048,3.07-7.8,4.782-11.489c0.481-1.036,2.046-0.471,1.761,0.635
					c-0.767,2.971-1.399,5.967-1.881,8.907c0.137,0.08,0.143,0.083,0.281,0.164c2.881-2.251,5.839-4.404,8.865-6.456
					c0.97-0.658,2.027,0.69,1.159,1.48c-3.151,2.866-6.165,5.882-9.026,9.039c3.845-0.671,7.701-1.307,11.562-1.905
					c1.131-0.175,1.531,1.446,0.449,1.819c-4.249,1.467-8.476,2.987-12.711,4.574c3.774,2.043,6.432,3.481,9.3,5.033
					c0.975,0.528,0.395,2.013-0.679,1.741c-3.083-0.781-5.958-1.509-10.023-2.537c1.466,2.567,2.576,4.488,3.73,6.437
					c0.561,0.948-0.681,1.924-1.468,1.153c-1.631-1.598-3.236-3.178-5.38-5.296c-0.098,1.589-0.169,2.951-0.216,4.224
					c-0.042,1.131-1.679,1.238-1.868,0.122c-0.257-1.517-0.504-3.129-0.783-5.061c-6.576,15.829-8.719,31.977-8.501,48.994
					c-1.594-0.612-2.392-0.918-3.986-1.53c0.779-17.258,4.261-32.181,11.122-47.988c-1.619,1.139-2.961,2.1-4.187,3.004
					c-0.921,0.679-2.029-0.565-1.246-1.4c0.845-0.901,1.774-1.865,2.862-2.976c-3.029,0.085-5.307,0.152-7.558,0.225
					c-1.115,0.036-1.354-1.552-0.279-1.849C407.314,279.08,409.573,278.482,412.599,277.696z"/>
			</g>
			<path style="fill:#E0E0E0;" d="M387.91,382.233h29.822c2.085,0,3.81-1.622,3.938-3.704l3.161-51.435
				c0.14-2.27-44.16-2.27-44.02,0l3.161,51.435C384.099,380.611,385.825,382.233,387.91,382.233z"/>
			<path style="fill:#E6E6E6;" d="M386.098,263.383c-0.788-0.652-1.192-1.659-1.073-2.675l0.671-5.7l-1.53,2.651
				c-0.905,1.569-2.98,1.991-4.426,0.9l-2.991-2.257l2.734,4.413c0.783,1.263,0.528,2.908-0.601,3.875l-3.534,3.029l3.465-0.79
				c1.518-0.346,3.05,0.521,3.534,2l1.193,3.641l0.763-3.873c0.343-1.74,2.106-2.809,3.808-2.309l2.328,0.685L386.098,263.383z"/>
			<path style="fill:#F5F5F5;" d="M405.991,253.562c0.576-0.476,0.871-1.212,0.784-1.954l-0.49-4.164l1.117,1.936
				c0.661,1.146,2.177,1.454,3.233,0.657l2.185-1.649l-1.997,3.223c-0.572,0.923-0.385,2.124,0.439,2.831l2.582,2.213l-2.531-0.577
				c-1.109-0.253-2.228,0.38-2.582,1.461l-0.871,2.659l-0.557-2.829c-0.25-1.271-1.538-2.052-2.781-1.687l-1.7,0.5L405.991,253.562z
				"/>
			<path style="fill:#E6E6E6;" d="M417.78,277.426c0.413-0.342,0.625-0.869,0.562-1.402l-0.352-2.988l0.802,1.39
				c0.475,0.822,1.562,1.043,2.32,0.471l1.568-1.183l-1.433,2.313c-0.41,0.662-0.276,1.525,0.315,2.031l1.852,1.588l-1.816-0.414
				c-0.796-0.181-1.599,0.273-1.853,1.048l-0.625,1.908l-0.4-2.03c-0.18-0.912-1.104-1.473-1.996-1.21l-1.22,0.359L417.78,277.426z"
				/>
		</g>
		<g>
			<path style="fill:#F5F5F5;" d="M384.634,143.387h-26.168c-0.728,0-1.319-0.59-1.319-1.319v-5.092
				c0-0.728,0.591-1.319,1.319-1.319h26.168c0.728,0,1.319,0.591,1.319,1.319v5.092
				C385.953,142.797,385.362,143.387,384.634,143.387z"/>
			<path style="fill:#F5F5F5;" d="M375.838,152.967h-26.169c-0.728,0-1.319-0.59-1.319-1.319v-5.092
				c0-0.729,0.591-1.319,1.319-1.319h26.169c0.728,0,1.319,0.59,1.319,1.319v5.092C377.157,152.376,376.566,152.967,375.838,152.967
				z"/>
			<path style="fill:#F0F0F0;" d="M405.988,152.967H379.82c-0.728,0-1.319-0.59-1.319-1.319v-5.092c0-0.729,0.591-1.319,1.319-1.319
				h26.168c0.728,0,1.319,0.59,1.319,1.319v5.092C407.307,152.376,406.717,152.967,405.988,152.967z"/>
		</g>
		<g>
			<path style="fill:#F5F5F5;" d="M121.368,197.204h-27.92c-0.729,0-1.319-0.591-1.319-1.319v-5.562c0-0.728,0.59-1.319,1.319-1.319
				h27.92c0.729,0,1.319,0.591,1.319,1.319v5.562C122.687,196.613,122.096,197.204,121.368,197.204z"/>
			<path style="fill:#F5F5F5;" d="M121.368,217.549h-27.92c-0.729,0-1.319-0.59-1.319-1.319v-5.562c0-0.729,0.59-1.319,1.319-1.319
				h27.92c0.729,0,1.319,0.59,1.319,1.319v5.562C122.687,216.958,122.096,217.549,121.368,217.549z"/>
			<path style="fill:#F5F5F5;" d="M112.037,207.366h-27.92c-0.728,0-1.319-0.591-1.319-1.319v-5.562
				c0-0.729,0.591-1.319,1.319-1.319h27.92c0.729,0,1.319,0.59,1.319,1.319v5.562C113.356,206.775,112.765,207.366,112.037,207.366z
				"/>
			<path style="fill:#F0F0F0;" d="M144.02,207.366H116.1c-0.729,0-1.319-0.591-1.319-1.319v-5.562c0-0.729,0.59-1.319,1.319-1.319
				h27.92c0.729,0,1.319,0.59,1.319,1.319v5.562C145.339,206.775,144.749,207.366,144.02,207.366z"/>
		</g>
		<g>
			<path style="fill:#F5F5F5;" d="M380.437,200.942h28.917c0.728,0,1.319,0.59,1.319,1.319v5.83c0,0.729-0.591,1.319-1.319,1.319
				h-28.917c-0.728,0-1.319-0.59-1.319-1.319v-5.83C379.118,201.533,379.708,200.942,380.437,200.942z"/>
			<path style="fill:#F5F5F5;" d="M390.072,190.449h28.917c0.728,0,1.319,0.59,1.319,1.319v5.83c0,0.728-0.591,1.319-1.319,1.319
				h-28.917c-0.729,0-1.319-0.591-1.319-1.319v-5.83C388.753,191.039,389.344,190.449,390.072,190.449z"/>
			<path style="fill:#F0F0F0;" d="M357.045,190.449h28.917c0.728,0,1.319,0.59,1.319,1.319v5.83c0,0.728-0.591,1.319-1.319,1.319
				h-28.917c-0.728,0-1.319-0.591-1.319-1.319v-5.83C355.726,191.039,356.317,190.449,357.045,190.449z"/>
		</g>
		<g>
			<path style="fill:#F5F5F5;" d="M82.767,158.638h30.562c0.729,0,1.319,0.59,1.319,1.319v6.271c0,0.729-0.59,1.319-1.319,1.319
				H82.767c-0.729,0-1.319-0.59-1.319-1.319v-6.271C81.448,159.229,82.039,158.638,82.767,158.638z"/>
			<path style="fill:#F5F5F5;" d="M98.276,147.598h30.562c0.728,0,1.319,0.59,1.319,1.319v6.271c0,0.728-0.591,1.319-1.319,1.319
				H98.276c-0.729,0-1.319-0.591-1.319-1.319v-6.271C96.957,148.189,97.547,147.598,98.276,147.598z"/>
			<path style="fill:#F0F0F0;" d="M63.527,147.598h30.562c0.729,0,1.319,0.59,1.319,1.319v6.271c0,0.728-0.59,1.319-1.319,1.319
				H63.527c-0.729,0-1.319-0.591-1.319-1.319v-6.271C62.208,148.189,62.799,147.598,63.527,147.598z"/>
		</g>
		<g>
			<g>
				<rect x="144.649" y="61.717" style="fill:#E6E6E6;" width="1.35" height="40.018"/>
				<g>
					<polygon style="fill:#F0F0F0;" points="102.564,123.972 145.324,98.129 188.085,123.972 					"/>
					<polygon style="fill:#F5F5F5;" points="148.276,123.972 145.324,98.129 164.546,123.972 					"/>
				</g>
			</g>
			<g>
				<rect x="354.001" y="61.717" style="fill:#E6E6E6;" width="1.35" height="40.018"/>
				<g>
					<polygon style="fill:#F0F0F0;" points="311.915,123.972 354.676,98.129 397.436,123.972 					"/>
					<polygon style="fill:#F5F5F5;" points="357.627,123.972 354.676,98.129 373.897,123.972 					"/>
				</g>
			</g>
		</g>
	</g>
</g>
<g id="Background_Simple" style="display:none;">
	<g style="display:inline;">
		<path style="fill:#407BFF;" d="M107.031,290.647c5.176,33.747-16.314,83.352,26.669,102.177
			c57.404,25.142,93.372-38.5,139.952-50.153c35.582-8.901,97.066,55.696,141.381,14.686c44.36-41.051-30.313-96.977-33.124-130.368
			c-2.781-33.036,59.052-90.582,9.449-125.667c-48.641-34.404-103.965,31.308-150.022,43.578
			c-40.859,10.886-140.139-40.88-169.657,9.869C43.717,202.844,102.033,258.068,107.031,290.647z"/>
		<path style="opacity:0.9;fill:#FFFFFF;" d="M107.031,290.647c5.176,33.747-16.314,83.352,26.669,102.177
			c57.404,25.142,93.372-38.5,139.952-50.153c35.582-8.901,97.066,55.696,141.381,14.686c44.36-41.051-30.313-96.977-33.124-130.368
			c-2.781-33.036,59.052-90.582,9.449-125.667c-48.641-34.404-103.965,31.308-150.022,43.578
			c-40.859,10.886-140.139-40.88-169.657,9.869C43.717,202.844,102.033,258.068,107.031,290.647z"/>
	</g>
</g>
<g id="Shadow">
	<ellipse id="_x3C_Path_x3E__1_" style="fill:#F5F5F5;" cx="245.178" cy="412.391" rx="193.889" ry="11.323"/>
</g>
<g id="Brainstorm">
	<g>
		<g>
			<g>
				<g>
					<path style="fill:#263238;" d="M189.875,144.746h-5v-5c0-1.381,1.119-2.5,2.5-2.5l0,0c1.381,0,2.5,1.119,2.5,2.5V144.746z"/>
					<path style="fill:#263238;" d="M315.125,144.746h-5v-5c0-1.381,1.119-2.5,2.5-2.5l0,0c1.381,0,2.5,1.119,2.5,2.5V144.746z"/>
				</g>
				<g style="opacity:0.5;">
					<path style="fill:#FFFFFF;" d="M189.875,144.746h-5v-5c0-1.381,1.119-2.5,2.5-2.5l0,0c1.381,0,2.5,1.119,2.5,2.5V144.746z"/>
					<path style="fill:#FFFFFF;" d="M315.125,144.746h-5v-5c0-1.381,1.119-2.5,2.5-2.5l0,0c1.381,0,2.5,1.119,2.5,2.5V144.746z"/>
				</g>
			</g>
			<path style="fill:#407BFF;" d="M330.586,239.024H169.415c-3.117,0-5.643-2.527-5.643-5.643v-83.545
				c0-3.117,2.527-5.643,5.643-5.643h161.171c3.117,0,5.643,2.527,5.643,5.643v83.545
				C336.229,236.497,333.702,239.024,330.586,239.024z"/>
			<path style="opacity:0.8;fill:#FFFFFF;" d="M330.586,239.024H169.415c-3.117,0-5.643-2.527-5.643-5.643v-83.545
				c0-3.117,2.527-5.643,5.643-5.643h161.171c3.117,0,5.643,2.527,5.643,5.643v83.545
				C336.229,236.497,333.702,239.024,330.586,239.024z"/>
			<g>
				<path style="fill:#407BFF;" d="M330.585,241.523H169.415c-4.49,0-8.143-3.652-8.143-8.143v-83.546
					c0-4.49,3.653-8.143,8.143-8.143h161.171c4.49,0,8.143,3.653,8.143,8.143v83.546
					C338.728,237.871,335.076,241.523,330.585,241.523z M169.415,146.692c-1.733,0-3.143,1.41-3.143,3.143v83.546
					c0,1.732,1.41,3.143,3.143,3.143h161.171c1.733,0,3.143-1.41,3.143-3.143v-83.546c0-1.733-1.41-3.143-3.143-3.143H169.415z"/>
			</g>
			<g style="opacity:0.4;">
				<path style="fill:#FFFFFF;" d="M330.585,241.523H169.415c-4.49,0-8.143-3.652-8.143-8.143v-83.546
					c0-4.49,3.653-8.143,8.143-8.143h161.171c4.49,0,8.143,3.653,8.143,8.143v83.546
					C338.728,237.871,335.076,241.523,330.585,241.523z M169.415,146.692c-1.733,0-3.143,1.41-3.143,3.143v83.546
					c0,1.732,1.41,3.143,3.143,3.143h161.171c1.733,0,3.143-1.41,3.143-3.143v-83.546c0-1.733-1.41-3.143-3.143-3.143H169.415z"/>
			</g>
		</g>
		<g>
			<g>
				<path style="fill:#263238;" d="M217.376,163.121c6.447,0.295,14.355,4.254,15.974,11.132c1.949,8.28-9.009,11.65-15.174,11.844
					c-5.87,0.185-15.856-1.907-16.884-9.04c-1.165-8.082,10.438-9.803,16.085-9.936c0.482-0.011,0.484-0.761,0-0.75
					c-5.88,0.138-16.957,1.801-16.978,9.75c-0.022,8.249,11.476,10.915,17.777,10.726c6.236-0.187,16.539-3.27,16.145-11.212
					c-0.4-8.059-9.943-12.944-16.944-13.264C216.894,162.349,216.895,163.099,217.376,163.121L217.376,163.121z"/>
			</g>
			<g>
				<path style="fill:#263238;" d="M197.626,206.23c0.073,2.127,0.294,4.294,0.222,6.419c-0.021,0.627,0.699,0.252-0.377,0.228
					c-1.015-0.022-2.045,0.071-3.059,0.106c-2.609,0.09-5.219,0.18-7.828,0.27c-0.994,0.034-2.072-0.041-3.059,0.106
					c-1.08,0.16-0.354,0.261-0.413-0.055c-0.424-2.248-0.167-4.837-0.246-7.126c-0.012-0.34-0.142-0.878-0.042-1.203
					c0.15-0.487-0.591,0.317-0.251,0.161c0.518-0.238,1.591-0.055,2.173-0.075c4.396-0.152,8.791-0.304,13.187-0.455
					c0.481-0.017,0.484-0.767,0-0.75c-5.163,0.178-10.327,0.357-15.491,0.535c-0.197,0.007-0.382,0.166-0.375,0.375
					c0.104,2.998,0.207,5.996,0.311,8.995c0.007,0.197,0.166,0.382,0.375,0.375c5.163-0.178,10.327-0.357,15.491-0.535
					c0.197-0.007,0.382-0.166,0.375-0.375c-0.081-2.332-0.161-4.664-0.242-6.996C198.359,205.749,197.609,205.746,197.626,206.23
					L197.626,206.23z"/>
			</g>
			<g>
				<path style="fill:#263238;" d="M235.479,206.851c0.101,2.934,0.715,6.248,0.316,9.144c-0.156,1.136,0.802,0.198-0.697,0.484
					c-1.376,0.263-2.963,0.102-4.358,0.15c-3.717,0.128-7.434,0.257-11.151,0.385c-1.423,0.049-2.933,0.244-4.358,0.15
					c-1.583-0.104-0.437,0.495-0.747-0.237c-1.071-2.526-0.255-7.382-0.351-10.151c-0.036-1.029,0.146-1.891-0.258-1.643
					c0.596-0.365,2.367-0.082,3.095-0.107c6.262-0.216,12.523-0.433,18.785-0.649c0.481-0.017,0.484-0.767,0-0.75
					c-7.355,0.254-14.711,0.508-22.066,0.762c-0.197,0.007-0.382,0.166-0.375,0.375c0.147,4.271,0.295,8.542,0.442,12.813
					c0.007,0.197,0.166,0.382,0.375,0.375c7.355-0.254,14.711-0.508,22.066-0.762c0.197-0.007,0.382-0.166,0.375-0.375
					c-0.115-3.322-0.23-6.644-0.344-9.965C236.212,206.37,235.462,206.368,235.479,206.851L235.479,206.851z"/>
			</g>
			<g>
				<path style="fill:#263238;" d="M318.781,164.439c0.066,1.916,0.346,3.942,0.202,5.85c-0.138,1.839,0.811,0.472-0.519,0.964
					c-2.868,1.062-7.717,0.267-10.793,0.373c-4.708,0.163-9.415,0.325-14.123,0.488c-1.607,0.055-3.226,0.176-4.834,0.167
					c-0.276-0.001-0.976,0.178-1.211,0.042c-0.735-0.424,0.518,0.874,0.01-0.123c-0.693-1.357-0.154-4.46-0.208-6.009
					c-0.013-0.384-0.342-2.227-0.088-2.548c-0.195,0.246-0.364,0.492,0.23,0.22c2.441-1.121,7.552-0.261,10.176-0.352
					c7.154-0.247,14.308-0.494,21.462-0.741c0.481-0.017,0.483-0.767,0-0.75c-10.749,0.371-21.499,0.743-32.248,1.114
					c-0.197,0.007-0.382,0.166-0.375,0.375c0.106,3.067,0.212,6.134,0.318,9.201c0.007,0.197,0.166,0.382,0.375,0.375
					c10.749-0.371,21.499-0.742,32.248-1.114c0.197-0.007,0.382-0.166,0.375-0.375c-0.082-2.385-0.165-4.771-0.247-7.157
					C319.515,163.958,318.765,163.956,318.781,164.439L318.781,164.439z"/>
			</g>
			<g>
				<path style="fill:#263238;" d="M324.757,176.626c-14.303,0.002-28.606,0.003-42.909,0.005c-0.483,0-0.483,0.75,0,0.75
					c14.303-0.002,28.606-0.004,42.909-0.005C325.24,177.376,325.24,176.626,324.757,176.626L324.757,176.626z"/>
			</g>
			<g>
				<path style="fill:#263238;" d="M320.979,184.931c-7.152,0.002-14.303,0.003-21.455,0.005c-0.483,0-0.483,0.75,0,0.75
					c7.151-0.002,14.303-0.003,21.455-0.005C321.462,185.681,321.462,184.931,320.979,184.931L320.979,184.931z"/>
			</g>
			<g>
				<path style="fill:#263238;" d="M315.125,188.244c-5.2,0.002-10.4,0.004-15.601,0.005c-0.483,0-0.483,0.75,0,0.75
					c5.2-0.002,10.4-0.003,15.601-0.005C315.608,188.994,315.608,188.244,315.125,188.244L315.125,188.244z"/>
			</g>
			<g>
				<path style="fill:#263238;" d="M230.704,174.756c-7.152,0.002-14.303,0.003-21.455,0.005c-0.482,0-0.483,0.75,0,0.75
					c7.152-0.002,14.303-0.003,21.455-0.005C231.186,175.506,231.187,174.756,230.704,174.756L230.704,174.756z"/>
			</g>
			<g>
				<path style="fill:#263238;" d="M224.85,178.069c-5.2,0.002-10.4,0.003-15.601,0.005c-0.482,0-0.483,0.75,0,0.75
					c5.2-0.002,10.4-0.003,15.601-0.005C225.333,178.819,225.333,178.069,224.85,178.069L224.85,178.069z"/>
			</g>
			<g>
				<path style="fill:#263238;" d="M320.852,197.12c-7.151,0.002-14.303,0.004-21.455,0.005c-0.483,0-0.483,0.75,0,0.75
					c7.151-0.002,14.303-0.003,21.455-0.005C321.335,197.87,321.336,197.12,320.852,197.12L320.852,197.12z"/>
			</g>
			<g>
				<path style="fill:#263238;" d="M310.125,213.383c-3.576,0.002-7.151,0.003-10.727,0.005c-0.483,0-0.483,0.75,0,0.75
					c3.576-0.002,7.151-0.003,10.727-0.005C310.608,214.133,310.608,213.383,310.125,213.383L310.125,213.383z"/>
			</g>
			<g>
				<path style="fill:#263238;" d="M195.239,209.309c-3.576,0.002-7.152,0.003-10.727,0.005c-0.483,0-0.483,0.75,0,0.75
					c3.576-0.002,7.152-0.003,10.727-0.005C195.721,210.059,195.722,209.309,195.239,209.309L195.239,209.309z"/>
			</g>
			<g>
				<path style="fill:#263238;" d="M230.954,209.497c-4.242,0.335-8.485,0.67-12.727,1.005c-0.478,0.038-0.482,0.788,0,0.75
					c4.242-0.335,8.485-0.67,12.727-1.005C231.432,210.209,231.436,209.458,230.954,209.497L230.954,209.497z"/>
			</g>
			<g>
				<path style="fill:#263238;" d="M261.211,192.427c-3.909,0.002-7.818,0.003-11.727,0.005c-0.483,0-0.483,0.75,0,0.75
					c3.909-0.002,7.818-0.003,11.727-0.005C261.694,193.177,261.694,192.427,261.211,192.427L261.211,192.427z"/>
			</g>
			<g>
				<path style="fill:#263238;" d="M320.852,210.414c-7.151,0.002-14.303,0.003-21.455,0.005c-0.483,0-0.483,0.75,0,0.75
					c7.151-0.002,14.303-0.003,21.455-0.005C321.335,211.164,321.336,210.414,320.852,210.414L320.852,210.414z"/>
			</g>
			<g>
				<path style="fill:#263238;" d="M245.917,189c-0.101,2.909-0.201,5.819-0.302,8.728c-0.007,0.208,0.178,0.368,0.375,0.375
					c6.442,0.223,12.884,0.445,19.326,0.668c0.208,0.007,0.368-0.178,0.375-0.375c0.129-3.741,0.258-7.481,0.388-11.222
					c0.007-0.208-0.178-0.368-0.375-0.375c-6.442-0.223-12.884-0.445-19.326-0.667c-0.483-0.017-0.482,0.733,0,0.75
					c5.484,0.189,10.968,0.379,16.452,0.568c0.623,0.022,2.087-0.226,2.612,0.09c0.533,0.321-0.371-0.698-0.122-0.105
					c0.105,0.25,0.003,0.925-0.042,1.214c-0.443,2.884,0.545,6.403-0.317,9.177c-0.211,0.679,0.747,0.105-0.608,0.161
					c-1.15,0.047-2.332-0.081-3.481-0.12c-3.367-0.116-6.735-0.233-10.102-0.349c-1.272-0.044-2.544-0.105-3.817-0.132
					c-1.347-0.028-0.488,0.379-0.564-0.378c-0.258-2.582,0.187-5.407,0.277-8.008C246.684,188.517,245.934,188.518,245.917,189
					L245.917,189z"/>
			</g>
			<g>
				<path style="fill:#263238;" d="M203.819,186.922c-5.056,3.024-9.276,7.986-11.172,13.557c-0.156,0.458,0.568,0.654,0.723,0.199
					c1.829-5.375,5.946-10.189,10.828-13.109C204.611,187.322,204.234,186.674,203.819,186.922L203.819,186.922z"/>
			</g>
			<g>
				<path style="fill:#263238;" d="M190.98,196.679c0.333,1.945,0.667,3.889,1,5.833c0.052,0.304,0.433,0.326,0.627,0.165
					c1.611-1.339,3.222-2.678,4.833-4.018c0.371-0.309-0.161-0.837-0.53-0.53c-1.611,1.339-3.222,2.678-4.833,4.018
					c0.209,0.055,0.418,0.11,0.627,0.165c-0.333-1.945-0.667-3.889-1-5.833C191.622,196.005,190.899,196.206,190.98,196.679
					L190.98,196.679z"/>
			</g>
			<g>
				<path style="fill:#263238;" d="M230.83,184.26c4.362,1.737,8.331,5.135,10.525,9.273c0.226,0.427,0.874,0.048,0.648-0.378
					c-2.291-4.321-6.431-7.81-10.973-9.618C230.581,183.359,230.386,184.084,230.83,184.26L230.83,184.26z"/>
			</g>
			<g>
				<path style="fill:#263238;" d="M242.138,189.855c-0.016,1.633-0.032,3.266-0.048,4.899c0.188-0.108,0.376-0.216,0.564-0.324
					c-1.493-0.882-2.987-1.764-4.48-2.646c-0.417-0.246-0.794,0.402-0.379,0.648c1.493,0.882,2.987,1.764,4.48,2.646
					c0.247,0.146,0.561-0.041,0.564-0.324c0.016-1.633,0.032-3.266,0.048-4.899C242.893,189.372,242.143,189.372,242.138,189.855
					L242.138,189.855z"/>
			</g>
			<g>
				<path style="fill:#263238;" d="M222.087,190.538c0.657,3.087,1.146,6.213,1.583,9.337c0.067,0.476,0.789,0.273,0.723-0.199
					c-0.437-3.124-0.926-6.25-1.583-9.337C222.71,189.867,221.986,190.067,222.087,190.538L222.087,190.538z"/>
			</g>
			<g>
				<path style="fill:#263238;" d="M225.114,197.398c-0.409,1.158-0.819,2.315-1.228,3.473c0.209-0.055,0.418-0.11,0.627-0.166
					c-0.847-0.991-1.694-1.982-2.541-2.973c-0.314-0.368-0.842,0.165-0.53,0.53c0.847,0.991,1.694,1.982,2.541,2.973
					c0.197,0.231,0.54,0.079,0.627-0.165c0.409-1.157,0.819-2.315,1.228-3.472C225.998,197.142,225.274,196.945,225.114,197.398
					L225.114,197.398z"/>
			</g>
			<g>
				<path style="fill:#263238;" d="M292.046,188.247c-2.208,0-4.417,0-6.626,0c0.125,0.125,0.25,0.25,0.375,0.375
					c0-2.209,0-4.417,0-6.626c-0.125,0.125-0.25,0.25-0.375,0.375c2.209,0,4.417,0,6.626,0c-0.125-0.125-0.25-0.25-0.375-0.375
					c0,2.208,0,4.417,0,6.626c0,0.483,0.75,0.483,0.75,0c0-2.209,0-4.417,0-6.626c0-0.203-0.172-0.375-0.375-0.375
					c-2.208,0-4.417,0-6.626,0c-0.203,0-0.375,0.172-0.375,0.375c0,2.208,0,4.417,0,6.626c0,0.203,0.172,0.375,0.375,0.375
					c2.209,0,4.417,0,6.626,0C292.528,188.997,292.529,188.247,292.046,188.247z"/>
			</g>
			<g>
				<path style="fill:#263238;" d="M292.046,200.436c-2.208,0-4.417,0-6.626,0c0.125,0.125,0.25,0.25,0.375,0.375
					c0-2.208,0-4.417,0-6.626c-0.125,0.125-0.25,0.25-0.375,0.375c2.209,0,4.417,0,6.626,0c-0.125-0.125-0.25-0.25-0.375-0.375
					c0,2.208,0,4.417,0,6.626c0,0.483,0.75,0.483,0.75,0c0-2.208,0-4.417,0-6.626c0-0.203-0.172-0.375-0.375-0.375
					c-2.208,0-4.417,0-6.626,0c-0.203,0-0.375,0.172-0.375,0.375c0,2.208,0,4.417,0,6.626c0,0.203,0.172,0.375,0.375,0.375
					c2.209,0,4.417,0,6.626,0C292.528,201.186,292.529,200.436,292.046,200.436z"/>
			</g>
			<g>
				<path style="fill:#263238;" d="M292.046,212.625c-2.208,0-4.417,0-6.626,0c0.125,0.125,0.25,0.25,0.375,0.375
					c0-2.208,0-4.417,0-6.626c-0.125,0.125-0.25,0.25-0.375,0.375c2.209,0,4.417,0,6.626,0c-0.125-0.125-0.25-0.25-0.375-0.375
					c0,2.208,0,4.417,0,6.626c0,0.483,0.75,0.483,0.75,0c0-2.208,0-4.417,0-6.626c0-0.203-0.172-0.375-0.375-0.375
					c-2.208,0-4.417,0-6.626,0c-0.203,0-0.375,0.172-0.375,0.375c0,2.208,0,4.417,0,6.626c0,0.203,0.172,0.375,0.375,0.375
					c2.209,0,4.417,0,6.626,0C292.528,213.375,292.529,212.625,292.046,212.625z"/>
			</g>
			<g>
				<path style="fill:#263238;" d="M283.645,183.403c1.65,0.742,3.176,1.833,4.27,3.282c0.149,0.197,0.394,0.253,0.589,0.076
					c2.158-1.962,4.845-3.906,7.77-4.404c0.475-0.081,0.273-0.804-0.199-0.723c-3.07,0.522-5.048,2.555-7.561,4.126
					c-0.819,0.512-0.068,0.23-0.339,0.033c-0.518-0.377-0.933-0.984-1.45-1.393c-0.823-0.65-1.742-1.214-2.701-1.645
					C283.587,182.559,283.205,183.205,283.645,183.403L283.645,183.403z"/>
			</g>
			<g>
				<path style="fill:#263238;" d="M283.645,196.162c1.65,0.742,3.176,1.833,4.27,3.282c0.149,0.197,0.394,0.253,0.589,0.076
					c2.158-1.962,4.845-3.906,7.77-4.404c0.475-0.081,0.273-0.804-0.199-0.723c-3.07,0.522-5.048,2.555-7.561,4.126
					c-0.819,0.512-0.068,0.23-0.339,0.033c-0.518-0.377-0.933-0.984-1.45-1.393c-0.823-0.65-1.742-1.214-2.701-1.645
					C283.587,195.318,283.205,195.964,283.645,196.162L283.645,196.162z"/>
			</g>
			<g>
				<path style="fill:#263238;" d="M283.645,207.781c1.65,0.742,3.176,1.833,4.27,3.282c0.149,0.197,0.394,0.253,0.589,0.076
					c2.158-1.962,4.845-3.906,7.77-4.404c0.475-0.081,0.273-0.804-0.199-0.723c-3.07,0.522-5.048,2.555-7.561,4.126
					c-0.819,0.512-0.068,0.23-0.339,0.033c-0.518-0.377-0.933-0.984-1.45-1.393c-0.823-0.65-1.742-1.214-2.701-1.645
					C283.587,206.937,283.205,207.583,283.645,207.781L283.645,207.781z"/>
			</g>
			<g style="opacity:0.3;">
				<path style="fill:#FFFFFF;" d="M217.376,163.121c6.447,0.295,14.355,4.254,15.974,11.132c1.949,8.28-9.009,11.65-15.174,11.844
					c-5.87,0.185-15.856-1.907-16.884-9.04c-1.165-8.082,10.438-9.803,16.085-9.936c0.482-0.011,0.484-0.761,0-0.75
					c-5.88,0.138-16.957,1.801-16.978,9.75c-0.022,8.249,11.476,10.915,17.777,10.726c6.236-0.187,16.539-3.27,16.145-11.212
					c-0.4-8.059-9.943-12.944-16.944-13.264C216.894,162.349,216.895,163.099,217.376,163.121L217.376,163.121z"/>
			</g>
			<g style="opacity:0.3;">
				<path style="fill:#FFFFFF;" d="M197.626,206.23c0.073,2.127,0.294,4.294,0.222,6.419c-0.021,0.627,0.699,0.252-0.377,0.228
					c-1.015-0.022-2.045,0.071-3.059,0.106c-2.609,0.09-5.219,0.18-7.828,0.27c-0.994,0.034-2.072-0.041-3.059,0.106
					c-1.08,0.16-0.354,0.261-0.413-0.055c-0.424-2.248-0.167-4.837-0.246-7.126c-0.012-0.34-0.142-0.878-0.042-1.203
					c0.15-0.487-0.591,0.317-0.251,0.161c0.518-0.238,1.591-0.055,2.173-0.075c4.396-0.152,8.791-0.304,13.187-0.455
					c0.481-0.017,0.484-0.767,0-0.75c-5.163,0.178-10.327,0.357-15.491,0.535c-0.197,0.007-0.382,0.166-0.375,0.375
					c0.104,2.998,0.207,5.996,0.311,8.995c0.007,0.197,0.166,0.382,0.375,0.375c5.163-0.178,10.327-0.357,15.491-0.535
					c0.197-0.007,0.382-0.166,0.375-0.375c-0.081-2.332-0.161-4.664-0.242-6.996C198.359,205.749,197.609,205.746,197.626,206.23
					L197.626,206.23z"/>
			</g>
			<g style="opacity:0.3;">
				<path style="fill:#FFFFFF;" d="M235.479,206.851c0.101,2.934,0.715,6.248,0.316,9.144c-0.156,1.136,0.802,0.198-0.697,0.484
					c-1.376,0.263-2.963,0.102-4.358,0.15c-3.717,0.128-7.434,0.257-11.151,0.385c-1.423,0.049-2.933,0.244-4.358,0.15
					c-1.583-0.104-0.437,0.495-0.747-0.237c-1.071-2.526-0.255-7.382-0.351-10.151c-0.036-1.029,0.146-1.891-0.258-1.643
					c0.596-0.365,2.367-0.082,3.095-0.107c6.262-0.216,12.523-0.433,18.785-0.649c0.481-0.017,0.484-0.767,0-0.75
					c-7.355,0.254-14.711,0.508-22.066,0.762c-0.197,0.007-0.382,0.166-0.375,0.375c0.147,4.271,0.295,8.542,0.442,12.813
					c0.007,0.197,0.166,0.382,0.375,0.375c7.355-0.254,14.711-0.508,22.066-0.762c0.197-0.007,0.382-0.166,0.375-0.375
					c-0.115-3.322-0.23-6.644-0.344-9.965C236.212,206.37,235.462,206.368,235.479,206.851L235.479,206.851z"/>
			</g>
			<g style="opacity:0.3;">
				<path style="fill:#FFFFFF;" d="M318.781,164.439c0.066,1.916,0.346,3.942,0.202,5.85c-0.138,1.839,0.811,0.472-0.519,0.964
					c-2.868,1.062-7.717,0.267-10.793,0.373c-4.708,0.163-9.415,0.325-14.123,0.488c-1.607,0.055-3.226,0.176-4.834,0.167
					c-0.276-0.001-0.976,0.178-1.211,0.042c-0.735-0.424,0.518,0.874,0.01-0.123c-0.693-1.357-0.154-4.46-0.208-6.009
					c-0.013-0.384-0.342-2.227-0.088-2.548c-0.195,0.246-0.364,0.492,0.23,0.22c2.441-1.121,7.552-0.261,10.176-0.352
					c7.154-0.247,14.308-0.494,21.462-0.741c0.481-0.017,0.483-0.767,0-0.75c-10.749,0.371-21.499,0.743-32.248,1.114
					c-0.197,0.007-0.382,0.166-0.375,0.375c0.106,3.067,0.212,6.134,0.318,9.201c0.007,0.197,0.166,0.382,0.375,0.375
					c10.749-0.371,21.499-0.742,32.248-1.114c0.197-0.007,0.382-0.166,0.375-0.375c-0.082-2.385-0.165-4.771-0.247-7.157
					C319.515,163.958,318.765,163.956,318.781,164.439L318.781,164.439z"/>
			</g>
			<g style="opacity:0.3;">
				<path style="fill:#FFFFFF;" d="M324.757,176.626c-14.303,0.002-28.606,0.003-42.909,0.005c-0.483,0-0.483,0.75,0,0.75
					c14.303-0.002,28.606-0.004,42.909-0.005C325.24,177.376,325.24,176.626,324.757,176.626L324.757,176.626z"/>
			</g>
			<g style="opacity:0.3;">
				<path style="fill:#FFFFFF;" d="M320.979,184.931c-7.152,0.002-14.303,0.003-21.455,0.005c-0.483,0-0.483,0.75,0,0.75
					c7.151-0.002,14.303-0.003,21.455-0.005C321.462,185.681,321.462,184.931,320.979,184.931L320.979,184.931z"/>
			</g>
			<g style="opacity:0.3;">
				<path style="fill:#FFFFFF;" d="M315.125,188.244c-5.2,0.002-10.4,0.004-15.601,0.005c-0.483,0-0.483,0.75,0,0.75
					c5.2-0.002,10.4-0.003,15.601-0.005C315.608,188.994,315.608,188.244,315.125,188.244L315.125,188.244z"/>
			</g>
			<g style="opacity:0.3;">
				<path style="fill:#FFFFFF;" d="M230.704,174.756c-7.152,0.002-14.303,0.003-21.455,0.005c-0.482,0-0.483,0.75,0,0.75
					c7.152-0.002,14.303-0.003,21.455-0.005C231.186,175.506,231.187,174.756,230.704,174.756L230.704,174.756z"/>
			</g>
			<g style="opacity:0.3;">
				<path style="fill:#FFFFFF;" d="M224.85,178.069c-5.2,0.002-10.4,0.003-15.601,0.005c-0.482,0-0.483,0.75,0,0.75
					c5.2-0.002,10.4-0.003,15.601-0.005C225.333,178.819,225.333,178.069,224.85,178.069L224.85,178.069z"/>
			</g>
			<g style="opacity:0.3;">
				<path style="fill:#FFFFFF;" d="M320.852,197.12c-7.151,0.002-14.303,0.004-21.455,0.005c-0.483,0-0.483,0.75,0,0.75
					c7.151-0.002,14.303-0.003,21.455-0.005C321.335,197.87,321.336,197.12,320.852,197.12L320.852,197.12z"/>
			</g>
			<g style="opacity:0.3;">
				<path style="fill:#FFFFFF;" d="M310.125,213.383c-3.576,0.002-7.151,0.003-10.727,0.005c-0.483,0-0.483,0.75,0,0.75
					c3.576-0.002,7.151-0.003,10.727-0.005C310.608,214.133,310.608,213.383,310.125,213.383L310.125,213.383z"/>
			</g>
			<g style="opacity:0.3;">
				<path style="fill:#FFFFFF;" d="M195.239,209.309c-3.576,0.002-7.152,0.003-10.727,0.005c-0.483,0-0.483,0.75,0,0.75
					c3.576-0.002,7.152-0.003,10.727-0.005C195.721,210.059,195.722,209.309,195.239,209.309L195.239,209.309z"/>
			</g>
			<g style="opacity:0.3;">
				<path style="fill:#FFFFFF;" d="M230.954,209.497c-4.242,0.335-8.485,0.67-12.727,1.005c-0.478,0.038-0.482,0.788,0,0.75
					c4.242-0.335,8.485-0.67,12.727-1.005C231.432,210.209,231.436,209.458,230.954,209.497L230.954,209.497z"/>
			</g>
			<g style="opacity:0.3;">
				<path style="fill:#FFFFFF;" d="M261.211,192.427c-3.909,0.002-7.818,0.003-11.727,0.005c-0.483,0-0.483,0.75,0,0.75
					c3.909-0.002,7.818-0.003,11.727-0.005C261.694,193.177,261.694,192.427,261.211,192.427L261.211,192.427z"/>
			</g>
			<g style="opacity:0.3;">
				<path style="fill:#FFFFFF;" d="M320.852,210.414c-7.151,0.002-14.303,0.003-21.455,0.005c-0.483,0-0.483,0.75,0,0.75
					c7.151-0.002,14.303-0.003,21.455-0.005C321.335,211.164,321.336,210.414,320.852,210.414L320.852,210.414z"/>
			</g>
			<g style="opacity:0.3;">
				<path style="fill:#FFFFFF;" d="M245.917,189c-0.101,2.909-0.201,5.819-0.302,8.728c-0.007,0.208,0.178,0.368,0.375,0.375
					c6.442,0.223,12.884,0.445,19.326,0.668c0.208,0.007,0.368-0.178,0.375-0.375c0.129-3.741,0.258-7.481,0.388-11.222
					c0.007-0.208-0.178-0.368-0.375-0.375c-6.442-0.223-12.884-0.445-19.326-0.667c-0.483-0.017-0.482,0.733,0,0.75
					c5.484,0.189,10.968,0.379,16.452,0.568c0.623,0.022,2.087-0.226,2.612,0.09c0.533,0.321-0.371-0.698-0.122-0.105
					c0.105,0.25,0.003,0.925-0.042,1.214c-0.443,2.884,0.545,6.403-0.317,9.177c-0.211,0.679,0.747,0.105-0.608,0.161
					c-1.15,0.047-2.332-0.081-3.481-0.12c-3.367-0.116-6.735-0.233-10.102-0.349c-1.272-0.044-2.544-0.105-3.817-0.132
					c-1.347-0.028-0.488,0.379-0.564-0.378c-0.258-2.582,0.187-5.407,0.277-8.008C246.684,188.517,245.934,188.518,245.917,189
					L245.917,189z"/>
			</g>
			<g style="opacity:0.3;">
				<path style="fill:#FFFFFF;" d="M203.819,186.922c-5.056,3.024-9.276,7.986-11.172,13.557c-0.156,0.458,0.568,0.654,0.723,0.199
					c1.829-5.375,5.946-10.189,10.828-13.109C204.611,187.322,204.234,186.674,203.819,186.922L203.819,186.922z"/>
			</g>
			<g style="opacity:0.3;">
				<path style="fill:#FFFFFF;" d="M190.98,196.679c0.333,1.945,0.667,3.889,1,5.833c0.052,0.304,0.433,0.326,0.627,0.165
					c1.611-1.339,3.222-2.678,4.833-4.018c0.371-0.309-0.161-0.837-0.53-0.53c-1.611,1.339-3.222,2.678-4.833,4.018
					c0.209,0.055,0.418,0.11,0.627,0.165c-0.333-1.945-0.667-3.889-1-5.833C191.622,196.005,190.899,196.206,190.98,196.679
					L190.98,196.679z"/>
			</g>
			<g style="opacity:0.3;">
				<path style="fill:#FFFFFF;" d="M230.83,184.26c4.362,1.737,8.331,5.135,10.525,9.273c0.226,0.427,0.874,0.048,0.648-0.378
					c-2.291-4.321-6.431-7.81-10.973-9.618C230.581,183.359,230.386,184.084,230.83,184.26L230.83,184.26z"/>
			</g>
			<g style="opacity:0.3;">
				<path style="fill:#FFFFFF;" d="M242.138,189.855c-0.016,1.633-0.032,3.266-0.048,4.899c0.188-0.108,0.376-0.216,0.564-0.324
					c-1.493-0.882-2.987-1.764-4.48-2.646c-0.417-0.246-0.794,0.402-0.379,0.648c1.493,0.882,2.987,1.764,4.48,2.646
					c0.247,0.146,0.561-0.041,0.564-0.324c0.016-1.633,0.032-3.266,0.048-4.899C242.893,189.372,242.143,189.372,242.138,189.855
					L242.138,189.855z"/>
			</g>
			<g style="opacity:0.3;">
				<path style="fill:#FFFFFF;" d="M222.087,190.538c0.657,3.087,1.146,6.213,1.583,9.337c0.067,0.476,0.789,0.273,0.723-0.199
					c-0.437-3.124-0.926-6.25-1.583-9.337C222.71,189.867,221.986,190.067,222.087,190.538L222.087,190.538z"/>
			</g>
			<g style="opacity:0.3;">
				<path style="fill:#FFFFFF;" d="M225.114,197.398c-0.409,1.158-0.819,2.315-1.228,3.473c0.209-0.055,0.418-0.11,0.627-0.166
					c-0.847-0.991-1.694-1.982-2.541-2.973c-0.314-0.368-0.842,0.165-0.53,0.53c0.847,0.991,1.694,1.982,2.541,2.973
					c0.197,0.231,0.54,0.079,0.627-0.165c0.409-1.157,0.819-2.315,1.228-3.472C225.998,197.142,225.274,196.945,225.114,197.398
					L225.114,197.398z"/>
			</g>
			<g style="opacity:0.3;">
				<path style="fill:#FFFFFF;" d="M292.046,188.247c-2.208,0-4.417,0-6.626,0c0.125,0.125,0.25,0.25,0.375,0.375
					c0-2.209,0-4.417,0-6.626c-0.125,0.125-0.25,0.25-0.375,0.375c2.209,0,4.417,0,6.626,0c-0.125-0.125-0.25-0.25-0.375-0.375
					c0,2.208,0,4.417,0,6.626c0,0.483,0.75,0.483,0.75,0c0-2.209,0-4.417,0-6.626c0-0.203-0.172-0.375-0.375-0.375
					c-2.208,0-4.417,0-6.626,0c-0.203,0-0.375,0.172-0.375,0.375c0,2.208,0,4.417,0,6.626c0,0.203,0.172,0.375,0.375,0.375
					c2.209,0,4.417,0,6.626,0C292.528,188.997,292.529,188.247,292.046,188.247z"/>
			</g>
			<g style="opacity:0.3;">
				<path style="fill:#FFFFFF;" d="M292.046,200.436c-2.208,0-4.417,0-6.626,0c0.125,0.125,0.25,0.25,0.375,0.375
					c0-2.208,0-4.417,0-6.626c-0.125,0.125-0.25,0.25-0.375,0.375c2.209,0,4.417,0,6.626,0c-0.125-0.125-0.25-0.25-0.375-0.375
					c0,2.208,0,4.417,0,6.626c0,0.483,0.75,0.483,0.75,0c0-2.208,0-4.417,0-6.626c0-0.203-0.172-0.375-0.375-0.375
					c-2.208,0-4.417,0-6.626,0c-0.203,0-0.375,0.172-0.375,0.375c0,2.208,0,4.417,0,6.626c0,0.203,0.172,0.375,0.375,0.375
					c2.209,0,4.417,0,6.626,0C292.528,201.186,292.529,200.436,292.046,200.436z"/>
			</g>
			<g style="opacity:0.3;">
				<path style="fill:#FFFFFF;" d="M292.046,212.625c-2.208,0-4.417,0-6.626,0c0.125,0.125,0.25,0.25,0.375,0.375
					c0-2.208,0-4.417,0-6.626c-0.125,0.125-0.25,0.25-0.375,0.375c2.209,0,4.417,0,6.626,0c-0.125-0.125-0.25-0.25-0.375-0.375
					c0,2.208,0,4.417,0,6.626c0,0.483,0.75,0.483,0.75,0c0-2.208,0-4.417,0-6.626c0-0.203-0.172-0.375-0.375-0.375
					c-2.208,0-4.417,0-6.626,0c-0.203,0-0.375,0.172-0.375,0.375c0,2.208,0,4.417,0,6.626c0,0.203,0.172,0.375,0.375,0.375
					c2.209,0,4.417,0,6.626,0C292.528,213.375,292.529,212.625,292.046,212.625z"/>
			</g>
			<g style="opacity:0.3;">
				<path style="fill:#FFFFFF;" d="M283.645,183.403c1.65,0.742,3.176,1.833,4.27,3.282c0.149,0.197,0.394,0.253,0.589,0.076
					c2.158-1.962,4.845-3.906,7.77-4.404c0.475-0.081,0.273-0.804-0.199-0.723c-3.07,0.522-5.048,2.555-7.561,4.126
					c-0.819,0.512-0.068,0.23-0.339,0.033c-0.518-0.377-0.933-0.984-1.45-1.393c-0.823-0.65-1.742-1.214-2.701-1.645
					C283.587,182.559,283.205,183.205,283.645,183.403L283.645,183.403z"/>
			</g>
			<g style="opacity:0.3;">
				<path style="fill:#FFFFFF;" d="M283.645,196.162c1.65,0.742,3.176,1.833,4.27,3.282c0.149,0.197,0.394,0.253,0.589,0.076
					c2.158-1.962,4.845-3.906,7.77-4.404c0.475-0.081,0.273-0.804-0.199-0.723c-3.07,0.522-5.048,2.555-7.561,4.126
					c-0.819,0.512-0.068,0.23-0.339,0.033c-0.518-0.377-0.933-0.984-1.45-1.393c-0.823-0.65-1.742-1.214-2.701-1.645
					C283.587,195.318,283.205,195.964,283.645,196.162L283.645,196.162z"/>
			</g>
			<g style="opacity:0.3;">
				<path style="fill:#FFFFFF;" d="M283.645,207.781c1.65,0.742,3.176,1.833,4.27,3.282c0.149,0.197,0.394,0.253,0.589,0.076
					c2.158-1.962,4.845-3.906,7.77-4.404c0.475-0.081,0.273-0.804-0.199-0.723c-3.07,0.522-5.048,2.555-7.561,4.126
					c-0.819,0.512-0.068,0.23-0.339,0.033c-0.518-0.377-0.933-0.984-1.45-1.393c-0.823-0.65-1.742-1.214-2.701-1.645
					C283.587,206.937,283.205,207.583,283.645,207.781L283.645,207.781z"/>
			</g>
		</g>
	</g>
</g>
<g id="Character_3">
	<g>
		<path style="fill:#407BFF;" d="M303.133,386.682c0,17.565,29.555,21.86,66.013,21.86s51.096-4.295,51.096-21.86
			c0-17.565-10.293-38.92-46.75-38.92C337.034,347.763,303.133,369.117,303.133,386.682z"/>
		<path style="opacity:0.5;fill:#FFFFFF;" d="M303.133,386.682c0,17.565,29.555,21.86,66.013,21.86s51.096-4.295,51.096-21.86
			c0-17.565-10.293-38.92-46.75-38.92C337.034,347.763,303.133,369.117,303.133,386.682z"/>
		<path style="fill:#407BFF;" d="M298.366,362.069c-1.341,24.155,5.337,37.196,20.564,38.042c15.227,0.846,28.659-18.05,30-42.205
			c1.341-24.155-13.997-42.656-29.224-43.502C304.479,313.557,299.707,337.914,298.366,362.069z"/>
		<path style="opacity:0.5;fill:#FFFFFF;" d="M298.366,362.069c-1.341,24.155,5.337,37.196,20.564,38.042
			c15.227,0.846,28.659-18.05,30-42.205c1.341-24.155-13.997-42.656-29.224-43.502C304.479,313.557,299.707,337.914,298.366,362.069
			z"/>
		<path style="opacity:0.1;" d="M372.737,349.839c0,0,14.171-1.795,15.421,3.205s-23.369,2.25-28.31,7.25
			c-4.94,5,16.06,7.569,11.487,10.561c-3.59,2.349-15.851-8.311-31.514-4.311c-15.663,4-17.896-7.813-16.155-18.781
			c1.742-10.969,3.016-22.763,7.754-21.866C336.158,326.794,351.566,348.384,372.737,349.839z"/>
		<path style="opacity:0.1;" d="M328.674,367.747c0,0-14.663-2.576-15.471,3.561C312.395,377.445,311.277,368.365,328.674,367.747z"
			/>
		<path style="opacity:0.1;" d="M305.037,393.667c-4.121-4.825-6.352-12.317-6.761-22.345c1.888,19.102,12.974,31.476,57.253,33.472
			c44.37,2,54.13-11.25,58.88-9.667c1.995,0.665,2.003,2.492,1.344,4.388c-6.763,6.993-21.518,9.028-46.607,9.028
			C338.115,408.543,312.099,405.425,305.037,393.667z"/>
		<g>
			<path style="fill:#B25B52;" d="M381.206,311.937c0,0-2.071,0.329-3.291,1.57c-1.22,1.241-4.819,1.113-4.819,1.113l-0.358,4.067
				l8.205-0.475L381.206,311.937z"/>
			<path style="fill:#263238;" d="M348.142,287.624c1.072-0.061,5.168,2.077,7.64,12.892c2.472,10.815,1.922,14.443,21.102,13.213
				l-0.624,5.386c0,0-16.62,1.783-21.578-2.2C349.741,312.947,344.183,287.849,348.142,287.624z"/>
			<path style="opacity:0.6;" d="M353.66,300.927l0.935,1.656c0,0-1.029,10.187,0.933,14.89c-0.307-0.173-0.595-0.356-0.846-0.557
				c-1.33-1.068-2.704-3.675-3.926-6.909L353.66,300.927z"/>
			<g>
				<path style="fill:#263238;" d="M326.281,267.752c0,0-0.14,3.154-1.606,3.801c-1.465,0.648,1.077,4.259,0.368,6.469
					c-0.709,2.211-2.349,4.197-0.594,7.157c0,0-0.379-2.469,0.867-3.938c0,0-0.522,4.141,0.819,4.231
					c1.341,0.091,1.606-1.12,3.805-0.605c2.199,0.514,0.259-3.382,0.259-3.382s0.886,0.587,1.479,2.655
					c0.592,2.068,6.416-0.318,8.785,0.533c2.369,0.85,3.027-3.527,3.027-3.527s1.055,2.6,0.199,3.489c0,0,1.866-0.534,2.073-3.009
					c0,0,0.547,0.752,0.269,2.325c0,0,1.796-0.131,1.347-3.611s-3.163-4.481-3.87-7.243c-0.706-2.762-9.408-8.11-9.408-8.11
					L326.281,267.752z"/>
				<path style="fill:#B25B52;" d="M330.961,278.384l7.416,4.826c-0.027,5.205,3.734,4.931,3.734,4.931s0.06,1.816-4.474,2.485
					c-4.533,0.668-6.094,0.49-6.094,0.49C333.802,288.412,332.087,281.921,330.961,278.384z"/>
				<path style="opacity:0.1;" d="M338.89,286.034c-0.313-0.692-0.52-1.603-0.513-2.824l-6.616-4.305l-0.415,0.738
					C331.346,279.642,333.854,286.325,338.89,286.034z"/>
				<path style="fill:#B25B52;" d="M328.816,270.444c0.755,6.049,0.941,8.626,4.201,11.549c4.905,4.4,12.168,2.155,13.241-3.997
					c0.964-5.537-0.427-14.493-6.517-16.539c-4.345-1.484-9.07,0.835-10.554,5.179C328.768,267.858,328.641,269.162,328.816,270.444
					z"/>
				<path style="fill:#9D2724;" d="M342.192,274.006c0.509,1.101,1.168,2.127,1.958,3.048c-0.485,0.399-1.121,0.562-1.738,0.446
					L342.192,274.006z"/>
				<path style="fill:#2E353A;" d="M336.862,270.855c-0.042-0.007-0.081-0.024-0.115-0.049c-0.104-0.083-0.122-0.235-0.039-0.339
					c0.001-0.001,0.002-0.003,0.003-0.004c0.556-0.733,1.435-1.15,2.354-1.116c0.131,0.017,0.225,0.134,0.215,0.266
					c-0.013,0.13-0.128,0.226-0.259,0.216c-0.76-0.016-1.481,0.334-1.939,0.941C337.029,270.834,336.945,270.867,336.862,270.855z"
					/>
				<path style="fill:#2E353A;" d="M345.831,269.893c-0.042-0.007-0.081-0.024-0.115-0.049c-0.593-0.469-1.375-0.625-2.103-0.421
					c-0.125,0.047-0.264-0.015-0.312-0.14c0-0.001-0.001-0.002-0.001-0.003c-0.043-0.127,0.024-0.265,0.15-0.312
					c0.883-0.26,1.836-0.078,2.561,0.488c0.11,0.076,0.137,0.227,0.061,0.336C346.018,269.87,345.924,269.909,345.831,269.893
					L345.831,269.893z"/>
				<g>
					<path style="fill:#2E353A;" d="M338.65,273.408c0.03,0.491,0.317,0.875,0.644,0.857c0.327-0.018,0.558-0.434,0.523-0.932
						c-0.035-0.499-0.317-0.875-0.638-0.856C338.859,272.495,338.621,272.91,338.65,273.408z"/>
					<path style="fill:#2E353A;" d="M344.24,273.059c0.03,0.491,0.317,0.875,0.638,0.856c0.321-0.018,0.558-0.434,0.53-0.931
						c-0.029-0.498-0.317-0.875-0.638-0.856C344.449,272.146,344.204,272.561,344.24,273.059z"/>
					<path style="fill:#2E353A;" d="M344.629,272.163l1.165-0.414C345.794,271.749,345.24,272.711,344.629,272.163z"/>
					<path style="fill:#2E353A;" d="M339.04,272.512l1.165-0.414C340.205,272.098,339.651,273.06,339.04,272.512z"/>
				</g>
				<path style="fill:#263238;" d="M339.259,278.36c-0.131-0.15-0.249-0.31-0.353-0.48c-0.036-0.053-0.023-0.126,0.03-0.162
					c0.001-0.001,0.002-0.002,0.004-0.002c0.058-0.031,0.13-0.012,0.164,0.044c0.524,0.872,1.432,1.444,2.445,1.541
					c0.066,0.001,0.118,0.055,0.117,0.121c-0.001,0.066-0.055,0.118-0.121,0.117C340.655,279.47,339.831,279.046,339.259,278.36z"/>
				<path style="fill:#263238;" d="M339.853,261.865c0,0,3.248,3.606-0.294,5.049c-3.541,1.443-6.729,3.569-7.248,6.555
					c-0.519,2.987-3.409,3.078-3.409,3.078s-4.681-5.933-1.658-12.172C330.266,258.137,338.617,259.686,339.853,261.865z"/>
				<path style="fill:#263238;" d="M330.464,262.803c0,0,3.907-6.048,10.46-3.12c6.554,2.928,6.84,7.896,5.192,7.408
					c-1.648-0.489-4.266-0.987-6.142-4.376C338.098,259.326,330.464,262.803,330.464,262.803z"/>
				<path style="fill:#263238;" d="M331.42,274.196c0,0,3.228-0.184,1.692,4.066C333.112,278.262,332.875,275.573,331.42,274.196z"
					/>
				<path style="fill:#B25B52;" d="M327.68,275.335c0.407,1.106,1.238,2.005,2.308,2.499c1.424,0.642,2.37-0.572,2.172-2.04
					c-0.177-1.316-1.133-3.243-2.659-3.27c-1.112,0.015-2.001,0.928-1.986,2.039C327.518,274.829,327.574,275.091,327.68,275.335z"
					/>
			</g>
			<g>
				<g>
					<path style="fill:#263238;" d="M373.98,325.882l-17.274-2.393c-0.365-0.051-0.571-0.447-0.403-0.775l10.724-20.885
						c0.295-0.575,0.922-0.901,1.563-0.812l17.274,2.393c0.365,0.051,0.571,0.447,0.403,0.775l-10.724,20.885
						C375.248,325.645,374.621,325.971,373.98,325.882z"/>
					<path style="opacity:0.5;fill:#FFFFFF;" d="M373.98,325.882l-17.274-2.393c-0.365-0.051-0.571-0.447-0.403-0.775l10.724-20.885
						c0.295-0.575,0.922-0.901,1.563-0.812l17.274,2.393c0.365,0.051,0.571,0.447,0.403,0.775l-10.724,20.885
						C375.248,325.645,374.621,325.971,373.98,325.882z"/>
				</g>
				<g>
					<path style="fill:#263238;" d="M374.656,325.976l-17.274-2.393c-0.365-0.051-0.571-0.447-0.403-0.775l10.724-20.885
						c0.296-0.575,0.922-0.901,1.563-0.813l17.274,2.393c0.365,0.051,0.571,0.447,0.403,0.775l-10.724,20.885
						C375.924,325.739,375.297,326.065,374.656,325.976z"/>
					<path style="opacity:0.7;fill:#FFFFFF;" d="M374.656,325.976l-17.274-2.393c-0.365-0.051-0.571-0.447-0.403-0.775
						l10.724-20.885c0.296-0.575,0.922-0.901,1.563-0.813l17.274,2.393c0.365,0.051,0.571,0.447,0.403,0.775l-10.724,20.885
						C375.924,325.739,375.297,326.065,374.656,325.976z"/>
					<g>
						<path style="opacity:0.7;fill:#263238;" d="M384.176,307.116l-1.992-0.276c-0.042-0.006-0.066-0.052-0.047-0.089l1.237-2.409
							c0.034-0.066,0.106-0.104,0.18-0.094l1.992,0.276c0.042,0.006,0.066,0.052,0.046,0.089l-1.237,2.409
							C384.322,307.089,384.25,307.126,384.176,307.116z"/>
						<path style="opacity:0.3;fill:#FFFFFF;" d="M384.176,307.116l-1.992-0.276c-0.042-0.006-0.066-0.052-0.047-0.089l1.237-2.409
							c0.034-0.066,0.106-0.104,0.18-0.094l1.992,0.276c0.042,0.006,0.066,0.052,0.046,0.089l-1.237,2.409
							C384.322,307.089,384.25,307.126,384.176,307.116z"/>
					</g>
				</g>
				<path style="fill:#FFFFFF;" d="M373.424,313.746c-0.295,0.816-0.971,1.418-1.51,1.343c-0.539-0.075-0.736-0.797-0.441-1.613
					c0.295-0.816,0.971-1.418,1.51-1.343C373.522,312.207,373.719,312.93,373.424,313.746z"/>
			</g>
			<polygon style="fill:#B25B52;" points="390.91,391.407 394.193,404.863 398.902,403.19 397.509,389.527 			"/>
			<g>
				<path style="fill:#263238;" d="M399.278,402.427l-5.702,0.108c-0.247,0.005-0.458,0.18-0.507,0.422l-1.086,5.353
					c-0.1,0.474,0.204,0.939,0.678,1.039c0.061,0.013,0.123,0.019,0.185,0.019c2.361-0.085,4.459-0.253,7.4-0.304
					c3.47-0.063,2.597,0.368,6.678,0.351c2.459-0.013,2.857-2.816,1.812-2.934c-4.782-0.512-6.154-1.93-8.026-3.603
					C400.304,402.557,399.794,402.397,399.278,402.427z"/>
			</g>
			<polygon style="opacity:0.1;" points="398.317,397.452 397.509,389.527 390.91,391.407 392.808,399.186 			"/>
			<path style="fill:#407BFF;" d="M345.229,326.231l7.532-2.899c0,0,3.96,4.369,6.418,9.573c2.459,5.204-9.378,5.204-9.378,5.204
				l-3.726-6.995L345.229,326.231z"/>
			<path style="opacity:0.3;" d="M345.229,326.231l7.532-2.899c0,0,3.96,4.369,6.418,9.573c2.459,5.204-9.378,5.204-9.378,5.204
				l-3.726-6.995L345.229,326.231z"/>
			<path style="opacity:0.2;" d="M349.608,324.546c2.136,11.789,5.949,9.681,5.949,9.681l-1.671,2.466l-4.532,0.577l-3.279-6.155
				l-0.846-4.883L349.608,324.546z"/>
			<polygon style="fill:#B25B52;" points="416.023,366.954 426.558,379.529 430.267,376.735 421.014,362.755 			"/>
			<g>
				<path style="fill:#263238;" d="M428.395,373.233l-4.529,3.518c-0.201,0.144-0.275,0.408-0.178,0.635l2.148,5.021
					c0.187,0.447,0.701,0.657,1.148,0.47c0.057-0.024,0.112-0.054,0.163-0.09c1.895-1.412,3.525-2.742,5.917-4.455
					c2.82-2.024,2.347-1.173,5.695-3.507c2.016-1.408,0.751-3.94-0.176-3.444c-4.226,2.296-6.262,1.72-8.753,1.407
					C429.313,372.757,428.802,372.915,428.395,373.233z"/>
			</g>
			<polygon style="opacity:0.1;" points="421.767,373.81 426.229,370.635 421.014,362.755 416.023,366.954 			"/>
			<path style="fill:#407BFF;" d="M329.943,331.325c0,0-2.734,15.784,2.713,25.989c5.447,10.205,17.539,12.058,48.609-20.858
				c0,0,10.927,5.082,37.229,34.749l5.85-4.53c0,0-22.892-37.184-33.958-46.008c-11.175-8.912-35.613,15.985-38.727,14.602
				c-2.772-1.231-4.083-9.819-4.083-9.819L329.943,331.325z"/>
			<path style="opacity:0.3;" d="M329.943,331.325c0,0-2.734,15.784,2.713,25.989c5.447,10.205,17.539,12.058,48.609-20.858
				c0,0,10.927,5.082,37.229,34.749l5.85-4.53c0,0-22.892-37.184-33.958-46.008c-11.175-8.912-35.613,15.985-38.727,14.602
				c-2.772-1.231-4.083-9.819-4.083-9.819L329.943,331.325z"/>
			<polygon style="fill:#407BFF;" points="416.62,371.167 419.039,373.311 425.945,367.578 424.761,364.502 			"/>
			<path style="fill:#407BFF;" d="M357.849,357.565c6.285-4.322,13.969-11.101,23.417-21.11c0,0,8.984-3.321,12.138,3.097
				c3.154,6.418,5.171,52.818,5.171,52.818l-7.484,2.158c0,0-13.375-41.876-13.299-44.639L357.849,357.565z"/>
			<path style="opacity:0.4;" d="M357.849,357.565c6.285-4.322,13.969-11.101,23.417-21.11c0,0,8.984-3.321,12.138,3.097
				c3.154,6.418,5.171,52.818,5.171,52.818l-7.484,2.158c0,0-13.375-41.876-13.299-44.639L357.849,357.565z"/>
			<path style="opacity:0.2;" d="M393.403,339.553c-0.579-1.179-1.357-2.024-2.238-2.626c2.672,1.41,6.423,4.817,6.869,12.912
				c0,0,0,0.001,0,0.001c-1.064-1.005-2.066-1.927-3.022-2.793C394.517,343.425,393.979,340.725,393.403,339.553z"/>
			<path style="opacity:0.2;" d="M381.265,336.455c0,0,1.373-0.505,3.232-0.74c-1.078,2.081-5.005,9.105-12.269,16.316l-14.38,5.534
				C364.134,353.243,371.818,346.464,381.265,336.455z"/>
			<polygon style="fill:#407BFF;" points="389.763,393.675 390.713,396.724 399.398,394.142 399.507,390.848 			"/>
			<path style="fill:#263238;" d="M355.055,325.427c0,0-2.234,3.633-25.901,7.234c0,0,1.044-7.31-1.45-17.774
				c-2.495-10.464-11.738-20.3-2.724-22.837c9.014-2.537,24.603-7.77,25.937-2.111c1.334,5.659,3.783,8.13,3.679,12.643
				C354.492,307.096,351.213,310.371,355.055,325.427z"/>
			<path style="fill:#B25B52;" d="M384.119,313.786c0.133-0.469,0.068-0.972-0.155-1.405c-0.353-0.688-0.989-1.58-1.878-1.491
				c-1.432,0.144-1.811,1.167-2.174,2.503c-0.362,1.335-1.5,3.699-0.205,4.519C380.944,318.697,382.848,318.266,384.119,313.786z"/>
			<path style="fill:#263238;" d="M330.222,290.575c0,0,12.589,0.725,11.849-2.855c0,0-2.45-1.126-1.976-2.456
				c0.474-1.331-6.008,0.048-8.54-0.316c-1.038-0.15-0.373,1.2-0.447,2.645C331.034,289.036,330.222,290.575,330.222,290.575z"/>
			<path style="opacity:0.6;" d="M328.233,317.346l9.203-0.118l3.134-2.132l3.542-1.566l0.466,1.253
				c0,0-10.993,12.791-15.248,11.668C329.231,323.987,328.93,320.884,328.233,317.346z"/>
			<path style="opacity:0.6;" d="M336.032,314.717c0,0-3.529,1.074-4.132-1.493c-0.869-3.698-3.451-13.992-6.069-17.948
				c-2.857-4.318,2.771,16.32,2.771,16.32l1.249,4.345l1.968,2.671l4.263-3.026L336.032,314.717z"/>
			<path style="opacity:0.6;" d="M342.474,289.336c0,0,0.438,2.409-9.024,2.197C333.451,291.534,344.482,294.169,342.474,289.336z"
				/>
			<g>
				<g>
					<polygon style="fill:#263238;" points="351.297,309.455 351.169,308.429 350.452,308.858 					"/>
					<polygon style="opacity:0.7;fill:#FFFFFF;" points="351.297,309.455 351.169,308.429 350.452,308.858 					"/>
				</g>
				<polygon style="fill:#263238;" points="342.677,296.793 342.798,296.135 343.557,295.68 344.194,295.884 351.069,307.353 
					351.219,308.464 350.46,308.919 349.551,308.263 				"/>
				<polygon style="opacity:0.6;fill:#FFFFFF;" points="342.677,296.793 342.798,296.135 343.557,295.68 344.194,295.884 
					351.069,307.353 351.219,308.464 350.46,308.919 349.551,308.263 				"/>
				
					<rect x="346.118" y="295.904" transform="matrix(0.8577 -0.5141 0.5141 0.8577 -106.1651 221.1892)" style="opacity:0.5;fill:#FFFFFF;" width="0.885" height="13.018"/>
			</g>
			<path style="fill:#263238;" d="M322.805,292.663c-3.218,0.903-3.422,5.262-0.49,15.944c2.932,10.683,5.071,17.504,10.735,14.935
				c5.664-2.568,12.209-9.452,12.209-9.452l-2.836-4.626c0,0-9.23,7.942-11.165,6.425
				C329.323,314.372,327.73,291.281,322.805,292.663z"/>
			<path style="fill:#B25B52;" d="M341.209,311.291l3.903-3.285c0,0-0.573-6.559,1.548-6.64c1.74-0.066,3.133,2.017,3.443,4.864
				c0.31,2.847-2.903,4.62-2.903,4.62l-3.774,4.186L341.209,311.291z"/>
		</g>
	</g>
</g>
<g id="Character_2_1_">
	<g>
		<g>
			<path style="fill:#263238;" d="M261.257,248.219c0,0,8.775-5.401,13.342,2.349c3.242,5.503,1.448,11.046,4.014,15.522
				c4,6.978,1.333,10.312-4.667,11.562s-15.63,1.083-14.293-5.917C261.02,264.574,254.318,248.119,261.257,248.219z"/>
			<path style="fill:#EBB376;" d="M270.842,263.839c0,0,0.727,10.271,2.645,10.448c0,0-4.52,2.26-8.957,0l-0.313-4.722
				L270.842,263.839z"/>
			<g>
				<g>
					<polygon style="fill:#407BFF;" points="228.481,409.034 224.952,409.034 226.069,354.201 230.775,354.201 					"/>
					<polygon style="opacity:0.7;fill:#FFFFFF;" points="228.481,409.034 224.952,409.034 226.069,354.201 230.775,354.201 					"/>
				</g>
				<g style="opacity:0.4;">
					<polygon style="fill:#407BFF;" points="257.443,409.034 253.914,409.034 255.031,354.201 259.737,354.201 					"/>
				</g>
				<g>
					<polygon style="fill:#407BFF;" points="286.388,409.034 289.918,409.034 288.8,354.201 284.094,354.201 					"/>
				</g>
				<g style="opacity:0.4;">
					<polygon style="fill:#FFFFFF;" points="286.388,409.034 289.918,409.034 288.8,354.201 284.094,354.201 					"/>
				</g>
				<rect x="228.689" y="354.201" style="fill:#407BFF;" width="57.942" height="5.126"/>
				<rect x="228.689" y="354.201" style="opacity:0.5;fill:#FFFFFF;" width="57.942" height="5.126"/>
				<polygon style="fill:#407BFF;" points="257.426,409.034 260.956,409.034 259.838,354.201 255.132,354.201 				"/>
				<polygon style="opacity:0.7;fill:#FFFFFF;" points="257.426,409.034 260.956,409.034 259.838,354.201 255.132,354.201 				"/>
				<g>
					<path style="fill:#263238;" d="M290.146,289.263h-9.599c-5.039,0-10.388,2.604-11.804,7.441
						c-4.003,13.673-7.032,56.552-7.032,56.552h25.694c3.121,0,5.743-2.348,6.085-5.451l5.383-48.8
						C299.447,293.807,295.376,289.263,290.146,289.263z"/>
					<path style="opacity:0.6;fill:#FFFFFF;" d="M290.146,289.263h-9.599c-5.039,0-10.388,2.604-11.804,7.441
						c-4.003,13.673-7.032,56.552-7.032,56.552h25.694c3.121,0,5.743-2.348,6.085-5.451l5.383-48.8
						C299.447,293.807,295.376,289.263,290.146,289.263z"/>
					<path style="fill:#263238;" d="M284.293,289.263h-9.599c-5.039,0-10.388,2.604-11.804,7.441
						c-4.003,13.673-7.032,56.552-7.032,56.552h24.801c3.63,0,6.678-2.731,7.076-6.338l5.285-47.912
						C293.593,293.807,289.523,289.263,284.293,289.263z"/>
					<path style="opacity:0.5;fill:#FFFFFF;" d="M284.293,289.263h-9.599c-5.039,0-10.388,2.604-11.804,7.441
						c-4.003,13.673-7.032,56.552-7.032,56.552h24.801c3.63,0,6.678-2.731,7.076-6.338l5.285-47.912
						C293.593,293.807,289.523,289.263,284.293,289.263z"/>
				</g>
				<path style="fill:#263238;" d="M264.866,354.201h-37.554c-3.463,0-6.27-2.807-6.27-6.27l0,0c0-3.463,2.807-6.27,6.27-6.27
					h37.554V354.201z"/>
				<path style="opacity:0.5;fill:#FFFFFF;" d="M264.866,354.201h-37.554c-3.463,0-6.27-2.807-6.27-6.27l0,0
					c0-3.463,2.807-6.27,6.27-6.27h37.554V354.201z"/>
				<path style="fill:#263238;" d="M287.824,354.201h-24.257c-3.313,0-5.999-2.686-5.999-5.999v-0.542
					c0-3.313,2.686-5.999,5.999-5.999h24.257c3.463,0,6.27,2.807,6.27,6.27l0,0C294.094,351.393,291.287,354.201,287.824,354.201z"
					/>
				<path style="opacity:0.6;fill:#FFFFFF;" d="M287.824,354.201h-24.257c-3.313,0-5.999-2.686-5.999-5.999v-0.542
					c0-3.313,2.686-5.999,5.999-5.999h24.257c3.463,0,6.27,2.807,6.27,6.27l0,0C294.094,351.393,291.287,354.201,287.824,354.201z"
					/>
			</g>
			<path style="fill:#EBB376;" d="M252.613,288.025c0,0,0.838,9.121-3.471,12.98c-3.922,3.513-10.25,5.245-10.25,5.245l-5.58-1.626
				c-0.536-0.156-1.098,0.009-1.439,0.423l-2.496,3.026c-0.499,0.604-0.369,1.529,0.285,2.032l0,0
				c0.309,0.238,0.694,0.346,1.069,0.3l2.889-0.353c0,0,2.645,0.49,3.52,0.425c0.686-0.051,2.626-0.735,2.626-0.735
				s9.951-0.856,14.195-5.101c4.245-4.244,5.309-13.051,5.309-13.051L252.613,288.025z"/>
			<polygon style="fill:#EBB376;" points="223.302,385.211 223.951,405.168 228.417,405.168 230.507,384.851 			"/>
			<path style="fill:#263238;" d="M223.88,403.122l5.093,0.026c0.222,0,0.414,0.155,0.462,0.371l1.052,4.79
				c0.097,0.424-0.169,0.846-0.593,0.943c-0.054,0.012-0.11,0.019-0.166,0.02c-2.121-0.042-4.007-0.162-6.648-0.165
				c-3.117-0.006-2.327,0.368-5.991,0.412c-2.208,0.024-2.606-2.486-1.67-2.608c4.285-0.529,5.525-1.834,7.181-3.364
				C222.96,403.253,223.416,403.102,223.88,403.122z"/>
			<polygon style="opacity:0.1;fill:#263238;" points="228.868,400.789 229.37,395.904 223.65,395.904 223.809,400.789 			"/>
			<path style="fill:#263238;" d="M275.592,310.203c0,0,13.922,31.625,0.551,31.625c-13.372,0-38.582,0-38.582,0
				s-1.669,8.411-7.68,54.639h-6.453c0,0-1.079-54.145,2.489-62.22c2.796-6.329,20.711-10.853,29.192-12.514
				c2.282-0.447,4.026-2.293,4.34-4.596l1.883-7.769L275.592,310.203z"/>
			<path style="opacity:0.2;" d="M275.592,310.203c0,0,13.922,31.625,0.551,31.625c-13.372,0-38.582,0-38.582,0
				s-1.669,8.411-7.68,54.639h-6.453c0,0-1.079-54.145,2.489-62.22c2.796-6.329,20.711-10.853,29.192-12.514
				c2.282-0.447,4.026-2.293,4.34-4.596l1.883-7.769L275.592,310.203z"/>
			<g>
				<polygon style="fill:#263238;" points="222.193,395.362 222.71,398.874 230.377,398.874 231.086,395.362 				"/>
				<polygon style="opacity:0.2;fill:#FFFFFF;" points="222.193,395.362 222.71,398.874 230.377,398.874 231.086,395.362 				"/>
			</g>
			<g>
				<polygon style="fill:#EBB376;" points="236.719,385.219 237.465,404.91 241.743,404.905 244.807,384.858 				"/>
				<polygon style="opacity:0.1;fill:#263238;" points="242.372,400.789 243.119,395.904 237.124,395.904 237.309,400.789 				"/>
			</g>
			<path style="fill:#263238;" d="M237.565,403.122l5.093,0.026c0.222,0,0.414,0.155,0.462,0.371l1.052,4.79
				c0.096,0.424-0.169,0.846-0.593,0.943c-0.055,0.012-0.11,0.019-0.166,0.02c-2.121-0.042-4.007-0.162-6.648-0.165
				c-3.117-0.006-2.327,0.368-5.991,0.412c-2.208,0.024-2.606-2.486-1.67-2.608c4.285-0.529,5.525-1.834,7.181-3.364
				C236.645,403.253,237.101,403.102,237.565,403.122z"/>
			<path style="fill:#263238;" d="M282.625,310.754c0,0,1,0,2.505,7.468c1.913,9.49,4.676,23.607-4.431,23.607
				c-13.372,0-29.526,0-29.526,0s-1.443,3.429-7.726,54.639h-6.453c0,0-3.584-54.797-0.016-62.871
				c2.748-6.219,16.413-9.063,23.928-10.042c2.143-0.279,3.918-2.007,3.974-4.167c0.058-2.255-0.268-9.019-0.268-9.019
				L282.625,310.754z"/>
			<g>
				<polygon style="fill:#263238;" points="235.705,395.362 236.447,398.874 243.889,398.874 244.598,395.362 				"/>
				<polygon style="opacity:0.2;fill:#FFFFFF;" points="235.705,395.362 236.447,398.874 243.889,398.874 244.598,395.362 				"/>
			</g>
			<path style="fill:#407BFF;" d="M257.36,274.345c-3.597-0.541-5.635,8.312-5.819,16.676l8.537,2.002
				C260.079,293.022,264.091,275.357,257.36,274.345z"/>
			<path style="opacity:0.1;" d="M257.36,274.345c-3.597-0.541-5.635,8.312-5.819,16.676l8.537,2.002
				C260.079,293.022,264.091,275.357,257.36,274.345z"/>
			<path style="fill:#407BFF;" d="M259.638,314.719c0,0-0.196-5.93-1.375-13.424c-1.354-8.605-3.671-18.272-2.885-24.393
				c0.212-1.651,1.553-2.793,3.262-2.793h23.349c1.486,0,2.77,1.404,2.593,2.842c-0.806,6.556-2.828,22.881,0.262,38.292
				C284.845,315.242,267.01,316.664,259.638,314.719z"/>
			<g>
				<path style="fill:#EBB376;" d="M279.896,285.797c0,0,1.55,10.619-3.131,13.611c-4.681,2.991-14.918,6.097-14.918,6.097
					l-6.324-1.341c-0.337-0.071-0.673,0.067-0.848,0.35l-2.535,4.099c-0.185,0.299-0.15,0.692,0.086,0.975l0,0
					c0.188,0.226,0.475,0.346,0.759,0.316l3.835-0.4c0,0,1.992,0.467,2.66,0.447c0.852-0.026,3.288-0.774,3.288-0.774
					s14.631-1.424,19.099-5.892c4.468-4.468,5.038-13.737,5.038-13.737L279.896,285.797z"/>
				<path style="fill:#407BFF;" d="M282.818,274.307c-4.538-0.541-3.337,9.605-3.889,16.714l8.482,0.956
					C287.411,291.977,289.565,275.111,282.818,274.307z"/>
				<path style="opacity:0.1;" d="M282.818,274.307c-4.538-0.541-3.337,9.605-3.889,16.714l8.482,0.956
					C287.411,291.977,289.565,275.111,282.818,274.307z"/>
			</g>
			<path style="fill:#407BFF;" d="M263.78,274.767c0,0-0.876,7.573,9.132,0.82c0.632-0.427,0.862-1.25,0.543-1.943
				c-0.343-0.746-0.704-1.805-0.727-2.991c-0.013-0.665-0.774-1.055-1.324-0.681c-1.416,0.963-3.704,1.999-6.799,1.749
				c-0.619-0.05-1.084,0.515-0.916,1.112C263.848,273.396,263.939,274.081,263.78,274.767z"/>
			<path style="opacity:0.1;" d="M263.78,274.767c0,0-0.876,7.573,9.132,0.82c0.632-0.427,0.862-1.25,0.543-1.943
				c-0.343-0.746-0.704-1.805-0.727-2.991c-0.013-0.665-0.774-1.055-1.324-0.681c-1.416,0.963-3.704,1.999-6.799,1.749
				c-0.619-0.05-1.084,0.515-0.916,1.112C263.848,273.396,263.939,274.081,263.78,274.767z"/>
			<path style="opacity:0.1;" d="M270.973,265.319L270.973,265.319c-0.089-0.892-0.131-1.481-0.131-1.481l-6.625,5.726l0.165,2.491
				C266.294,271.913,269.086,270.676,270.973,265.319z"/>
			<g>
				<path style="fill:#EBB376;" d="M271.375,255.593c0.534,5.85,0.888,8.314-1.581,11.737c-3.714,5.151-11.012,4.531-13.288-1.041
					c-2.046-5.015-2.578-13.733,2.735-16.912c3.785-2.291,8.711-1.079,11.001,2.706
					C270.889,253.149,271.276,254.351,271.375,255.593z"/>
				<path style="fill:#D58745;" d="M259.058,261.124c-0.225,1.147-0.606,2.258-1.135,3.302c0.545,0.262,1.178,0.269,1.729,0.02
					L259.058,261.124z"/>
				<path style="fill:#2E353A;" d="M262.698,257.435c0.037-0.016,0.07-0.041,0.097-0.072c0.079-0.102,0.06-0.248-0.041-0.327
					c-0.001-0.001-0.003-0.002-0.004-0.003c-0.688-0.559-1.606-0.747-2.46-0.505c-0.118,0.046-0.18,0.177-0.141,0.298
					c0.042,0.119,0.172,0.182,0.292,0.143c0.708-0.189,1.463-0.026,2.03,0.437C262.536,257.455,262.622,257.466,262.698,257.435z"/>
				<path style="fill:#2E353A;" d="M254.577,258.671c-0.041-0.004-0.08-0.017-0.114-0.039c-0.106-0.072-0.134-0.217-0.062-0.323
					c0.001-0.001,0.002-0.003,0.003-0.004c0.48-0.745,1.294-1.21,2.18-1.245c0.127,0.007,0.227,0.112,0.226,0.239
					c-0.003,0.126-0.107,0.227-0.233,0.227c-0.731,0.041-1.398,0.43-1.794,1.047C254.737,258.639,254.659,258.676,254.577,258.671z"
					/>
				<g>
					<path style="fill:#2E353A;" d="M262.236,259.752c0.085,0.467-0.096,0.891-0.407,0.95c-0.31,0.059-0.622-0.278-0.703-0.753
						c-0.081-0.475,0.097-0.891,0.401-0.947C261.831,258.945,262.149,259.28,262.236,259.752z"/>
					<path style="fill:#2E353A;" d="M256.924,260.706c0.085,0.467-0.096,0.891-0.401,0.948c-0.304,0.056-0.622-0.278-0.709-0.751
						c-0.087-0.473,0.097-0.891,0.401-0.947C256.52,259.9,256.843,260.231,256.924,260.706z"/>
					<path style="fill:#2E353A;" d="M256.354,259.957l-1.185-0.121C255.169,259.836,255.908,260.61,256.354,259.957z"/>
					<path style="fill:#2E353A;" d="M261.666,259.003l-1.185-0.121C260.481,258.882,261.22,259.656,261.666,259.003z"/>
				</g>
				<path style="fill:#EBB376;" d="M273.451,259.965c-0.156,1.125-0.753,2.142-1.659,2.827c-1.209,0.897-2.349-0.052-2.465-1.474
					c-0.104-1.276,0.4-3.287,1.832-3.625c1.049-0.215,2.074,0.462,2.289,1.512C273.499,259.455,273.5,259.713,273.451,259.965z"/>
				<path style="fill:#263238;" d="M261.27,266.825c-0.168,0.054-0.34,0.093-0.515,0.117c-0.056,0.011-0.11-0.026-0.121-0.082
					c0-0.001,0-0.002-0.001-0.004c-0.005-0.058,0.036-0.11,0.094-0.118c0.894-0.118,1.68-0.654,2.116-1.443
					c0.024-0.053,0.086-0.076,0.139-0.052c0.053,0.024,0.076,0.086,0.052,0.139C262.665,266.082,262.028,266.603,261.27,266.825z"/>
			</g>
			<path style="fill:#263238;" d="M263.406,251.484c0,0-1.598,2.5-0.363,4.25s-7.181-1.913-9.348,1.918
				c0,0-2.746-11.835,9.71-10.251V251.484z"/>
			<path style="fill:#263238;" d="M263.043,250.734c0,0-0.931,4.742,2.152,6.204c3.083,1.462,3,5.379,5.777,4.721
				c4.002-0.948,1.14-13.092-5.346-14.405C260.819,246.283,263.043,250.734,263.043,250.734z"/>
		</g>
		<g>
			<g>
				<polygon style="fill:#407BFF;" points="175.655,409.86 172.207,409.86 170.696,318.595 177.166,318.595 				"/>
				<polygon style="opacity:0.7;fill:#FFFFFF;" points="175.655,409.86 172.207,409.86 170.696,318.595 177.166,318.595 				"/>
			</g>
			<g>
				<polygon style="fill:#407BFF;" points="213.719,409.86 210.27,409.86 208.76,318.595 215.23,318.595 				"/>
				<polygon style="opacity:0.4;fill:#FFFFFF;" points="213.719,409.86 210.27,409.86 208.76,318.595 215.23,318.595 				"/>
			</g>
			<g>
				<rect x="173.931" y="317.066" style="fill:#407BFF;" width="65.072" height="7.138"/>
				<rect x="173.931" y="317.066" style="opacity:0.3;fill:#FFFFFF;" width="65.072" height="7.138"/>
			</g>
			<g>
				<rect x="239.003" y="317.066" style="fill:#407BFF;" width="38.16" height="7.138"/>
				<rect x="239.003" y="317.066" style="opacity:0.5;fill:#FFFFFF;" width="38.16" height="7.138"/>
			</g>
			<g>
				<polygon style="fill:#407BFF;" points="278.792,409.86 275.343,409.86 273.832,318.595 280.303,318.595 				"/>
				<polygon style="opacity:0.4;fill:#FFFFFF;" points="278.792,409.86 275.343,409.86 273.832,318.595 280.303,318.595 				"/>
			</g>
			<path style="fill:#263238;" d="M281.602,318.595h-49.331c-1.463,0-2.648-1.186-2.648-2.648v-0.821
				c0-1.463,1.186-2.648,2.648-2.648h49.331c1.463,0,2.648,1.186,2.648,2.648v0.821C284.25,317.41,283.065,318.595,281.602,318.595z
				"/>
			<path style="opacity:0.6;fill:#FFFFFF;" d="M281.602,318.595h-49.331c-1.463,0-2.648-1.186-2.648-2.648v-0.821
				c0-1.463,1.186-2.648,2.648-2.648h49.331c1.463,0,2.648,1.186,2.648,2.648v0.821C284.25,317.41,283.065,318.595,281.602,318.595z
				"/>
			<g>
				<path style="fill:#263238;" d="M235.477,318.595h-67.493c-1.463,0-2.648-1.186-2.648-2.648v-0.821
					c0-1.463,1.186-2.648,2.648-2.648h67.493c1.463,0,2.648,1.186,2.648,2.648v0.821C238.126,317.41,236.94,318.595,235.477,318.595
					z"/>
				<path style="opacity:0.5;fill:#FFFFFF;" d="M235.477,318.595h-67.493c-1.463,0-2.648-1.186-2.648-2.648v-0.821
					c0-1.463,1.186-2.648,2.648-2.648h67.493c1.463,0,2.648,1.186,2.648,2.648v0.821C238.126,317.41,236.94,318.595,235.477,318.595
					z"/>
			</g>
			<g>
				<polygon style="fill:#407BFF;" points="240.728,409.86 237.279,409.86 235.768,318.595 242.239,318.595 				"/>
			</g>
			<polygon style="opacity:0.7;fill:#FFFFFF;" points="240.728,409.86 237.279,409.86 235.768,318.595 242.239,318.595 			"/>
		</g>
		<g>
			<g>
				<path style="fill:#407BFF;" d="M233.562,312.477c-0.561,0-1.017-0.455-1.017-1.017s0.455-1.017,1.017-1.017h27.701
					c0.561,0,1.017,0.455,1.017,1.017s-0.455,1.017-1.017,1.017H233.562z"/>
				<path style="opacity:0.2;" d="M233.562,312.477c-0.561,0-1.017-0.455-1.017-1.017s0.455-1.017,1.017-1.017h27.701
					c0.561,0,1.017,0.455,1.017,1.017s-0.455,1.017-1.017,1.017H233.562z"/>
				<path style="fill:#407BFF;" d="M235.914,310.719l-3.687-26.238c-0.136-0.965-1.028-1.748-1.993-1.748H226.7v29.734h7.711
					C235.377,312.466,236.049,311.684,235.914,310.719z"/>
			</g>
			<g>
				<path style="fill:#263238;" d="M232.887,312.466h-31.321c-0.965,0-1.858-0.783-1.993-1.748l-3.688-26.238
					c-0.136-0.965,0.537-1.748,1.502-1.748h31.321c0.965,0,1.858,0.783,1.993,1.748l3.687,26.238
					C234.525,311.684,233.852,312.466,232.887,312.466z"/>
				<path style="opacity:0.7;fill:#FFFFFF;" d="M232.887,312.466h-31.321c-0.965,0-1.858-0.783-1.993-1.748l-3.688-26.238
					c-0.136-0.965,0.537-1.748,1.502-1.748h31.321c0.965,0,1.858,0.783,1.993,1.748l3.687,26.238
					C234.525,311.684,233.852,312.466,232.887,312.466z"/>
			</g>
			<path style="opacity:0.7;fill:#FFFFFF;" d="M216.668,296.885c0.124,0.882-0.491,1.598-1.373,1.598s-1.698-0.715-1.822-1.598
				c-0.124-0.882,0.491-1.598,1.373-1.598C215.729,295.287,216.544,296.003,216.668,296.885z"/>
		</g>
	</g>
</g>
<g id="Character_1">
	<g>
		<path style="fill:#407BFF;" d="M122.674,304.867c-3.764,21.953,22.451,10.442,32.893,10.703c0.667,0.017,1.314,0.153,1.95,0.393
			l3.228,13.924l-3.133,14.423l-7.31,11.552h-45.489l-32.893-22.255l-8.354-26.106l2.349-42.291l1.044-6.787
			c0,0,1.044,8.354,24.017,6.265c22.973-2.088,40.981-9.492,46.207-2.088C143.45,271.477,125.162,290.351,122.674,304.867z"/>
		<polygon style="opacity:0.2;" points="156.829,340.793 156.829,349.01 143.711,354.297 117.866,352.926 111.072,344.311 
			113.951,339.808 130.593,339.808 		"/>
		<rect x="107.122" y="367.666" style="fill:#263238;" width="7.9" height="35.96"/>
		<rect x="107.122" y="367.666" style="opacity:0.5;fill:#FFFFFF;" width="7.9" height="35.96"/>
		<polygon style="fill:#263238;" points="117.065,400.357 105.079,400.357 80.598,404.988 80.598,409.075 85.638,409.075 
			105.079,405.397 117.065,405.397 136.506,409.075 141.546,409.075 141.546,404.988 		"/>
		<polygon style="opacity:0.3;fill:#FFFFFF;" points="117.065,400.357 105.079,400.357 80.598,404.988 80.598,409.075 
			85.638,409.075 105.079,405.397 117.065,405.397 136.506,409.075 141.546,409.075 141.546,404.988 		"/>
		<g>
			<path style="fill:#407BFF;" d="M136.506,410.846c1.68,0,3.36,0,5.04,0c1.578,0,1.58-2.452,0-2.452c-1.68,0-3.36,0-5.04,0
				C134.929,408.394,134.926,410.846,136.506,410.846L136.506,410.846z"/>
		</g>
		<g>
			<path style="fill:#407BFF;" d="M80.598,410.846c1.68,0,3.36,0,5.04,0c1.578,0,1.58-2.452,0-2.452c-1.68,0-3.36,0-5.04,0
				C79.02,408.394,79.018,410.846,80.598,410.846L80.598,410.846z"/>
		</g>
		<rect x="107.122" y="367.666" style="opacity:0.2;" width="7.9" height="8.139"/>
		<path style="fill:#407BFF;" d="M153.779,345.89H106.51v-10.193h47.269c2.815,0,5.097,2.282,5.097,5.097l0,0
			C158.876,343.608,156.594,345.89,153.779,345.89z"/>
		<path style="opacity:0.1;" d="M153.779,345.89H106.51v-10.193h47.269c2.815,0,5.097,2.282,5.097,5.097l0,0
			C158.876,343.608,156.594,345.89,153.779,345.89z"/>
		<g>
			<path style="fill:#FFC3BD;" d="M114.171,272.205c0,0,6.053,16.974,11.003,17.358c4.95,0.384,11.009-8.725,11.009-8.725
				l2.468-6.42l4.975-0.415v8.054l-5.107,2.568c0,0-7.805,12.828-13.867,12.51c-6.063-0.319-12.183-9.703-13.422-14.482
				C110.549,280.026,111.002,274.551,114.171,272.205z"/>
			<g>
				<polygon style="fill:#263238;" points="144.686,286.178 146.479,271.356 139.62,270.895 139.413,285.823 				"/>
				<polygon style="opacity:0.5;fill:#FFFFFF;" points="144.686,286.178 146.479,271.356 139.62,270.895 139.413,285.823 				"/>
				
					<rect x="139.684" y="268.993" transform="matrix(0.9977 0.0671 -0.0671 0.9977 18.4404 -8.9933)" style="fill:#407BFF;" width="6.875" height="2.135"/>
				<path style="fill:#263238;" d="M146.622,269.226l-6.859-0.461l0.072-1.071c0.014-0.215,0.2-0.377,0.415-0.363l6.081,0.409
					c0.215,0.014,0.377,0.2,0.363,0.415L146.622,269.226z"/>
			</g>
			<g>
				<path style="fill:#407BFF;" d="M112.584,287.147c0,0-6.49-10.715-2.343-15.794c4.146-5.079,10.479,11.666,10.479,11.666
					L112.584,287.147z"/>
				<path style="opacity:0.3;fill:#FFFFFF;" d="M112.584,287.147c0,0-6.49-10.715-2.343-15.794
					c4.146-5.079,10.479,11.666,10.479,11.666L112.584,287.147z"/>
				<polygon style="fill:#407BFF;" points="111.324,286.389 112.553,288.2 121.647,283.498 120.804,281.599 				"/>
				<polygon style="opacity:0.1;fill:#FFFFFF;" points="111.324,286.389 112.553,288.2 121.647,283.498 120.804,281.599 				"/>
			</g>
			<g>
				<path style="fill:#407BFF;" d="M80.064,328.124c0,0-8.136-28.464,1.401-56.772c0,0,12.377-5.759,30.026-1.535
					c2.024,0.484,3.251,2.532,2.732,4.548c-1.766,6.865-4.496,23.235,2.096,43.925C116.321,318.29,100.844,327.717,80.064,328.124z"
					/>
				<path style="opacity:0.5;fill:#FFFFFF;" d="M80.064,328.124c0,0-8.136-28.464,1.401-56.772c0,0,12.377-5.759,30.026-1.535
					c2.024,0.484,3.251,2.532,2.732,4.548c-1.766,6.865-4.496,23.235,2.096,43.925C116.321,318.29,100.844,327.717,80.064,328.124z"
					/>
			</g>
			<path style="fill:#FFC3BD;" d="M95.538,268.399l5.975,5.176l3.47-3.073c-1.312-0.977-0.952-3.181-0.22-5.561l-8.474-6.69
				C96.719,261.392,97.044,265.704,95.538,268.399z"/>
			<g>
				<polygon style="fill:#FFC3BD;" points="139.03,335.207 150.043,339.69 148.799,344.347 137.043,341.925 				"/>
				<g>
					<path style="fill:#263238;" d="M101.422,319.314c0,0,52.713-18.26,57.06-1.483c4.346,16.777-35.601,28.35-56.531,27.645
						C81.021,344.772,101.422,319.314,101.422,319.314z"/>
					<path style="opacity:0.3;" d="M101.422,319.314c0,0,52.713-18.26,57.06-1.483c4.346,16.777-35.601,28.35-56.531,27.645
						C81.021,344.772,101.422,319.314,101.422,319.314z"/>
				</g>
				<path style="opacity:0.7;" d="M140.609,321.014l-25.578,16.304l4.083,6.699c0,0-2.473,0.822-5.894-7.362l15.831-10.465
					c0,0-4.958-0.497-4.83-1.275c0.208-1.264,11.085-3.691,16.05-4.735C140.769,320.076,141.038,320.74,140.609,321.014z"/>
				<path style="opacity:0.7;" d="M114.1,336.599l4.434,7.519c-6.017,1.038-11.798,1.521-16.584,1.359
					c-2.23-0.075-3.987-0.433-5.354-1.01l-1.556-2.982l3.354-7.071L114.1,336.599z"/>
				<polygon style="fill:#FFC3BD;" points="114.552,337.754 109.572,341.928 111.859,345.479 119.44,344.294 				"/>
				<polygon style="fill:#263238;" points="120.772,344.419 115.568,336.219 113.22,337.896 117.72,344.975 				"/>
				<polygon style="opacity:0.3;fill:#FFFFFF;" points="120.772,344.419 115.568,336.219 113.22,337.896 117.72,344.975 				"/>
				<path style="fill:#263238;" d="M82.894,336.778c-2.835-4.807-8.307-19.273,4.849-21.791
					c13.155-2.518,56.369,21.791,56.369,21.791l-2.012,6.326l-40.919-6.75c0,0,11.377,10.295-1.067,9.015
					C90.243,344.354,85.65,341.451,82.894,336.778z"/>
				<polygon style="fill:#263238;" points="143.047,335.207 140.489,343.466 143.047,343.823 145.352,336.688 				"/>
				<polygon style="opacity:0.3;fill:#FFFFFF;" points="143.047,335.207 140.489,343.466 143.047,343.823 145.352,336.688 				"/>
				<path style="fill:#263238;" d="M113.322,345.295l-1.795-5.461c-0.068-0.206-0.269-0.338-0.484-0.316l-4.767,0.473
					c-0.423,0.039-0.735,0.413-0.696,0.836c0.005,0.055,0.016,0.108,0.032,0.16c0.681,1.958,1.364,3.673,2.166,6.125
					c0.95,2.893,0.362,2.272,1.431,5.689c0.646,2.058,3.098,1.668,2.927,0.761c-0.806-4.141,0.259-4.948,1.178-6.949
					C113.478,346.189,113.481,345.72,113.322,345.295z"/>
				<path style="fill:#263238;" d="M149.064,339.391l-1.851,5.61c-0.07,0.211,0.016,0.443,0.207,0.557l4.229,2.52
					c0.374,0.227,0.86,0.107,1.086-0.266c0.029-0.048,0.053-0.099,0.071-0.152c0.632-2.034,1.115-3.869,1.949-6.386
					c0.981-2.971,1.088-2.1,2.29-5.577c0.722-2.096-1.543-3.27-1.955-2.417c-1.862,3.915-3.235,3.932-5.217,5.025
					C149.48,338.556,149.192,338.942,149.064,339.391z"/>
			</g>
			<g>
				<g>
					<path style="fill:#263238;" d="M141.842,320.748h-23.719c-1.118,0-2.024-0.906-2.024-2.024l0,0h27.766l0,0
						C143.866,319.842,142.96,320.748,141.842,320.748z"/>
					<path style="opacity:0.2;fill:#FFFFFF;" d="M141.842,320.748h-23.719c-1.118,0-2.024-0.906-2.024-2.024l0,0h27.766l0,0
						C143.866,319.842,142.96,320.748,141.842,320.748z"/>
				</g>
				<path style="fill:#263238;" d="M124.382,320.748h-17.23c-1.118,0-2.024-0.906-2.024-2.024l0,0h21.278l0,0
					C126.406,319.842,125.5,320.748,124.382,320.748z"/>
				<path style="opacity:0.5;fill:#FFFFFF;" d="M124.382,320.748h-17.23c-1.118,0-2.024-0.906-2.024-2.024l0,0h21.278l0,0
					C126.406,319.842,125.5,320.748,124.382,320.748z"/>
				<g>
					<path style="fill:#263238;" d="M142.01,320.129h-15.612c-0.33,0-0.561-0.326-0.452-0.637l6.944-19.837
						c0.191-0.547,0.707-0.913,1.286-0.913h15.612c0.33,0,0.561,0.326,0.452,0.638l-6.944,19.837
						C143.104,319.764,142.589,320.129,142.01,320.129z"/>
					<path style="opacity:0.5;fill:#FFFFFF;" d="M142.01,320.129h-15.612c-0.33,0-0.561-0.326-0.452-0.637l6.944-19.837
						c0.191-0.547,0.707-0.913,1.286-0.913h15.612c0.33,0,0.561,0.326,0.452,0.638l-6.944,19.837
						C143.104,319.764,142.589,320.129,142.01,320.129z"/>
				</g>
				<g>
					<path style="fill:#263238;" d="M142.621,320.129h-15.612c-0.33,0-0.561-0.326-0.452-0.637l6.944-19.837
						c0.191-0.547,0.707-0.913,1.286-0.913h15.612c0.33,0,0.561,0.326,0.452,0.638l-6.944,19.837
						C143.715,319.764,143.2,320.129,142.621,320.129z"/>
					<path style="opacity:0.7;fill:#FFFFFF;" d="M142.621,320.129h-15.612c-0.33,0-0.561-0.326-0.452-0.637l6.944-19.837
						c0.191-0.547,0.707-0.913,1.286-0.913h15.612c0.33,0,0.561,0.326,0.452,0.638l-6.944,19.837
						C143.715,319.764,143.2,320.129,142.621,320.129z"/>
				</g>
				<path style="fill:#FFFFFF;" d="M140.025,309.436c-0.162,0.76-0.687,1.376-1.174,1.376c-0.487,0-0.751-0.616-0.589-1.376
					c0.162-0.76,0.687-1.376,1.174-1.376C139.923,308.06,140.187,308.676,140.025,309.436z"/>
			</g>
			<path style="fill:#FFC3BD;" d="M87.858,279.887c0,0,3.812,18.763,6.383,21.875c2.57,3.112,13.771,11.482,13.771,11.482
				l6.656-1.397l4.771,3.982l-3.119,2.462l-3.693-1.389c0,0-2.657,0.528-6.098,0.528s-17.412-8.219-20.181-12.835
				c-2.769-4.616-6.647-21.971-6.647-21.971L87.858,279.887z"/>
			<g>
				<path style="fill:#407BFF;" d="M93.334,268.529l2.372-1.376l5.807,6.422c0,0-3.192-1.304-4.09-0.777
					c-0.81,0.476-0.244,2.533-1.184,2.55C94.151,275.384,93.334,268.529,93.334,268.529z"/>
				<path style="fill:#407BFF;" d="M101.513,273.575l3.029-5.979l2.476,1.337c0,0,2.303,5.803,0.543,6.415
					c-1.071,0.372-1.481-2.342-2.544-2.735C104.165,272.298,101.513,273.575,101.513,273.575z"/>
			</g>
			<g style="opacity:0.2;">
				<path style="fill:#FFFFFF;" d="M93.334,268.529l2.372-1.376l5.807,6.422c0,0-3.192-1.304-4.09-0.777
					c-0.81,0.476-0.244,2.533-1.184,2.55C94.151,275.384,93.334,268.529,93.334,268.529z"/>
				<path style="fill:#FFFFFF;" d="M101.513,273.575l3.029-5.979l2.476,1.337c0,0,2.303,5.803,0.543,6.415
					c-1.071,0.372-1.481-2.342-2.544-2.735C104.165,272.298,101.513,273.575,101.513,273.575z"/>
			</g>
			<path style="fill:#407BFF;" d="M80.064,289.222c0,0-4.411-13.354,1.401-17.87c5.812-4.517,8.538,15.396,8.538,15.396
				L80.064,289.222z"/>
			<path style="opacity:0.3;fill:#FFFFFF;" d="M80.064,289.222c0,0-4.411-13.354,1.401-17.87c5.812-4.517,8.538,15.396,8.538,15.396
				L80.064,289.222z"/>
			<polygon style="fill:#407BFF;" points="78.875,288.077 79.766,290.367 90.897,287.504 90.452,285.215 			"/>
			<polygon style="opacity:0.1;fill:#FFFFFF;" points="78.875,288.077 79.766,290.367 90.897,287.504 90.452,285.215 			"/>
			<path style="opacity:0.1;" d="M96.429,259.363c-0.044-0.383-0.091-0.757-0.14-1.113l8.474,6.69
				c-0.314,1.021-0.55,2.003-0.626,2.877C99.018,267.862,97.08,262.204,96.429,259.363z"/>
			<path style="fill:#FFC3BD;" d="M97.887,248.487c-1.765,5.976-2.643,8.494-0.775,12.52c2.803,6.127,10.53,6.987,14.041,1.659
				c3.141-4.802,5.554-13.762,0.643-18.172c-3.47-3.161-8.845-2.911-12.006,0.559C98.896,246.033,98.244,247.21,97.887,248.487z"/>
			<path style="fill:#263238;" d="M104.622,254.486c-0.168,0.477-0.059,0.951,0.254,1.067c0.313,0.116,0.705-0.181,0.873-0.658
				c0.168-0.477,0.065-0.951-0.248-1.067C105.188,253.714,104.796,254.01,104.622,254.486z"/>
			<path style="fill:#263238;" d="M110.005,256.44c-0.175,0.476-0.06,0.958,0.248,1.067c0.308,0.109,0.705-0.181,0.879-0.657
				c0.175-0.476,0.059-0.952-0.248-1.067C110.578,255.668,110.18,255.964,110.005,256.44z"/>
			<path style="fill:#ED893E;" d="M108.199,256.576c0.3,1.203,0.762,2.359,1.374,3.437c-0.565,0.304-1.236,0.343-1.832,0.107
				L108.199,256.576z"/>
			<path style="fill:#263238;" d="M104.411,251.843c0.092,0.091,0.232,0.113,0.348,0.055c1.247-0.6,2.814,0.251,2.826,0.259
				c0.144,0.081,0.326,0.029,0.407-0.115c0.081-0.144,0.029-0.326-0.115-0.407c-0.081-0.013-1.854-1.011-3.377-0.282
				c-0.147,0.073-0.209,0.25-0.139,0.399C104.371,251.786,104.388,251.817,104.411,251.843z"/>
			<path style="fill:#263238;" d="M113.168,255.405c0.087,0.061,0.2,0.073,0.298,0.032c0.148-0.068,0.215-0.241,0.152-0.391
				c-0.359-0.896-1.132-1.561-2.072-1.782c-0.163-0.028-0.319,0.081-0.347,0.244c-0.029,0.163,0.081,0.319,0.244,0.347
				c0.739,0.189,1.342,0.721,1.623,1.43C113.09,255.333,113.125,255.374,113.168,255.405z"/>
			<path style="fill:#263238;" d="M96.723,251.973c0,0,2.241-0.052,1.928-2.612c0,0,3.709-0.105,3.866-2.821
				c0,0,3.239,2.873,4.388,0.627c0,0,3.97,3.552,4.492,1.202c0,0,4.127,5.119,3.918,1.985c0,0,4.649-0.47,0.47-4.492
				c0,0,3.813-3.343-2.351-4.701c0,0,0.539-3.964-3.801-2.219c0,0-1.005-4.309-4.766-1.801c0,0-2.032-3.03-4.254,1.045
				c0,0-3.279-1.878-4.323,2.353c0,0-5.934,0.722-3.487,4.619c0,0,1.831,13.093,3.487,13.093
				C97.415,258.25,96.723,251.973,96.723,251.973z"/>
			<path style="fill:#FFC3BD;" d="M94.679,252.587c0.036,1.206,0.55,2.347,1.428,3.174c1.166,1.09,2.496,0.22,2.769-1.266
				c0.254-1.337-0.041-3.513-1.507-4.036c-1.071-0.36-2.232,0.216-2.592,1.288C94.686,252.017,94.653,252.303,94.679,252.587z"/>
			<path style="fill:#263238;" d="M105.938,261.732c0.211,0.062,0.426,0.105,0.644,0.13c0.07,0.012,0.136-0.035,0.148-0.105
				c0-0.001,0.001-0.003,0.001-0.005c0.004-0.072-0.048-0.135-0.12-0.144c-1.116-0.119-2.109-0.761-2.676-1.729
				c-0.031-0.065-0.11-0.092-0.175-0.061c-0.065,0.031-0.092,0.11-0.061,0.175C104.18,260.852,104.988,261.479,105.938,261.732z"/>
		</g>
		<g>
			<path style="fill:#407BFF;" d="M63.045,258.946c0,0-21.331,109.467,49.078,111.471c64.22,1.827,49.862-50.645,45.685-54.3
				c-4.177-3.655,11.486,33.676-14.358,34.198c-31.158,0.629-36.809-28.977-47.251-29.238
				c-10.442-0.261-26.236,13.575-27.802-11.486C66.83,284.53,75.053,241.977,63.045,258.946z"/>
			<path style="opacity:0.5;fill:#FFFFFF;" d="M63.045,258.946c0,0-21.331,109.467,49.078,111.471
				c64.22,1.827,49.862-50.645,45.685-54.3c-4.177-3.655,11.486,33.676-14.358,34.198c-31.158,0.629-36.809-28.977-47.251-29.238
				c-10.442-0.261-26.236,13.575-27.802-11.486C66.83,284.53,75.053,241.977,63.045,258.946z"/>
		</g>
	</g>
</g>
</svg>
